<svg width="0" height="0" class="hidden">
  <symbol version="1.1" id="clouds" xmlns="http://www.w3.org/2000/svg" xmlns:xlink="http://www.w3.org/1999/xlink" xml:space="preserve" fill="#f7f8f8" stroke="#4a4a4a" viewBox="0 0 412.913 412.913">
    <g id="SVGRepo_bgCarrier" stroke-width="0"></g>
    <g id="SVGRepo_tracerCarrier" stroke-linecap="round" stroke-linejoin="round"></g>
    <g id="SVGRepo_iconCarrier">
      <path d="M343.454,170.099c0.01-0.583,0.022-1.165,0.022-1.75c0-55.728-45.177-100.905-100.905-100.905 c-48.025,0-88.209,33.551-98.403,78.492c-9.505-5.321-20.454-8.368-32.122-8.368c-36.407,0-65.92,29.514-65.92,65.92 c0,1.488,0.067,2.959,0.164,4.423C19.262,217.944,0,243.959,0,274.479c0,39.207,31.784,70.991,70.991,70.991h253.183 c49.009,0,88.739-39.73,88.739-88.739C412.913,214.343,383.192,178.903,343.454,170.099z"></path>
    </g>
  </symbol>
  <symbol fill="none" xmlns="http://www.w3.org/2000/svg" stroke="#fff" viewBox="0 0 24 24" id="humidity">
    <g id="SVGRepo_bgCarrier" stroke-width="0"></g>
    <g id="SVGRepo_tracerCarrier" stroke-linecap="round" stroke-linejoin="round"></g>
    <g id="SVGRepo_iconCarrier">
      <path d="M22 16C22 19.3137 19.3137 22 16 22C12.6863 22 10 19.3137 10 16C10 11.6863 16 2 16 2C16 2 22 11.6863 22 16Z" stroke="#fff" stroke-width="2" stroke-linecap="round" stroke-linejoin="round"></path>
      <path d="M8 9C8 10.6569 6.65685 12 5 12C3.34315 12 2 10.6569 2 9C2 6.84315 5 2 5 2C5 2 8 6.84315 8 9Z" stroke="#fff" stroke-width="2" stroke-linecap="round" stroke-linejoin="round"></path>
    </g>
  </symbol>
  <symbol version="1.1" id="moon-large" xmlns="http://www.w3.org/2000/svg" xmlns:xlink="http://www.w3.org/1999/xlink" xml:space="preserve" viewBox="0 0 512 512">
    <g>
      <g>
        <path d="M426.655,444.491c-85.064,74.278-206.9,83.839-299.319,29.581
			c-22.308-13.074-42.982-29.907-60.958-50.499C56,411.723,46.93,399.058,39.085,385.82C15.143,345.045,3.539,298.958,3.784,252.953
			c0.49-71.582,29.989-142.754,87.026-192.6C138.776,18.433,197.855-1.096,256.69,0.047c45.597,0.817,91.03,13.973,131.069,38.733
			c22.063,13.564,42.41,30.724,60.305,51.153c9.724,11.114,18.386,22.799,25.822,34.974
			C537.623,227.785,521.117,361.878,426.655,444.491z"></path>
        <path d="M107.7,89.244c99.915-87.35,248.817-74.175,333.815,23.051
			c84.998,97.226,75.388,243.379-24.528,330.729c-99.915,87.35-251.727,82.317-336.725-14.908S7.784,176.594,107.7,89.244z"></path>
        <g>
          <path d="M244.029,141.49c-17.92,37.27-63.032,51.341-100.302,33.421
				c-37.27-17.92-53.234-61.357-35.315-98.627c17.92-37.27,62.835-54.046,100.105-36.126
				C245.787,58.078,261.948,104.22,244.029,141.49z"></path>
          <path d="M128.086,97.65c17.92-37.27,62.835-54.046,100.105-36.126
				c4.127,1.984,7.994,4.316,11.586,6.942c-7.335-11.909-17.95-21.909-31.26-28.308c-37.27-17.92-82.185-1.144-100.105,36.126
				c-15.805,32.872-5.247,70.538,23.036,91.265C118.963,147.091,116.789,121.146,128.086,97.65z"></path>
        </g>
        <path d="M217.121,218.367c-1.17-5.733,2.71-11.178,8.442-12.348c5.733-1.17,11.248,2.359,12.418,8.091
			c1.17,5.733-2.456,11.466-8.189,12.635C224.06,227.916,218.291,224.099,217.121,218.367z"></path>
        <path d="M363.151,96.945c-1.17-5.733,2.71-11.178,8.442-12.348s11.248,2.359,12.418,8.091
			c1.17,5.733-2.456,11.466-8.189,12.636C370.089,106.493,364.32,102.677,363.151,96.945z"></path>
        <path d="M282.752,398.389c8.691-7.598,21.813-6.256,29.411,2.435c7.598,8.691,6.926,21.591-1.765,29.189
			c-8.691,7.598-22.059,6.972-29.657-1.719C273.143,419.603,274.061,405.987,282.752,398.389z"></path>
        <path d="M58.327,220.961c-1.17-5.733,2.71-11.178,8.442-12.348
			c5.733-1.17,11.248,2.359,12.418,8.091s-2.456,11.466-8.189,12.636C65.265,230.51,59.496,226.694,58.327,220.961z"></path>
        <path d="M468.947,281.701c-3.725,36.649-37.256,62.098-73.905,58.373
			c-36.649-3.725-63.177-35.279-59.452-71.928c3.725-36.649,36.272-64.305,72.921-60.58
			C445.16,211.292,472.673,245.052,468.947,281.701z"></path>
        <g>
          <path d="M173.239,331.136c14.631,25.328,4.867,57.294-20.461,71.925
				c-25.328,14.631-57.07,6.642-71.701-18.686c-14.631-25.328-6.526-58.257,18.802-72.888
				C125.206,296.855,158.608,305.808,173.239,331.136z"></path>
          <path d="M112.818,324.329c18.464-10.666,41.21-8.787,57.855,2.82
				c-15.693-22.238-46.847-29.497-70.794-15.663c-25.328,14.631-33.433,47.561-18.802,72.888c4.04,6.993,9.388,12.657,15.541,16.895
				c-0.915-1.299-1.788-2.644-2.602-4.052C79.385,371.89,87.49,338.96,112.818,324.329z"></path>
        </g>
        <path d="M349.701,282.093c3.725-36.649,36.272-64.305,72.921-60.579
			c12.217,1.242,23.415,5.824,32.783,12.735c-11.007-14.534-27.694-24.73-46.893-26.682c-36.649-3.725-69.196,23.93-72.921,60.579
			c-2.465,24.247,8.316,46.261,26.506,59.464C352.777,315.06,347.969,299.128,349.701,282.093z"></path>
      </g>
      <path d="M254.81,381.707c-105.358,0-198.419-52.064-254.72-131.654
		c-2.703,99.72,55.552,194.334,153.936,236.742c128.773,55.507,279.648,1.534,335.155-127.239
		c15.267-35.419,21.657-72.747,20.288-109.416C453.162,329.68,360.13,381.707,254.81,381.707z"></path>
    </g>
  </symbol>
  <symbol version="1.1" id="search-icon" xmlns="http://www.w3.org/2000/svg" xmlns:xlink="http://www.w3.org/1999/xlink" xml:space="preserve" fill="#000000" viewBox="0 0 512 512">
    <g id="SVGRepo_bgCarrier" stroke-width="0"></g>
    <g id="SVGRepo_tracerCarrier" stroke-linecap="round" stroke-linejoin="round"></g>
    <g id="SVGRepo_iconCarrier">
      <rect x="277.598" y="315.577" transform="matrix(-0.7071 -0.7071 0.7071 -0.7071 324.4168 783.1846)" width="93.627" height="17.653"></rect>
      <circle cx="176.552" cy="176.552" r="176.552"></circle>
      <circle cx="176.552" cy="176.552" r="141.241"></circle>
      <path d="M264.828,264.828c-78.005,0-141.241-63.236-141.241-141.241c0-32.481,11.078-62.31,29.506-86.17 C86.278,48.61,35.311,106.557,35.311,176.552c0,78.005,63.236,141.241,141.241,141.241c45.525,0,85.906-21.63,111.735-55.071 C280.641,264.003,272.838,264.828,264.828,264.828z"></path>
      <path d="M469.378,506.829L338.034,375.486c-6.894-6.894-6.894-18.073,0-24.968l12.484-12.484 c6.894-6.894,18.073-6.894,24.968,0l131.342,131.342c6.894,6.894,6.894,18.073,0,24.968l-12.483,12.486 C487.451,513.724,476.272,513.724,469.378,506.829z"></path>
      <path d="M485.74,490.466L354.396,359.123c-6.23-6.23-6.774-15.928-1.745-22.833 c-0.736,0.536-1.47,1.079-2.134,1.743l-12.483,12.483c-6.895,6.895-6.895,18.073,0,24.968l131.342,131.342 c6.895,6.895,18.073,6.895,24.968,0l12.484-12.482c0.664-0.664,1.206-1.398,1.742-2.134 C501.668,497.239,491.97,496.696,485.74,490.466z"></path>
      <g>
        <path d="M307.43,123.586h-18.696c-4.111,0-8.166-0.958-11.843-2.796l-6.514-3.257 c-3.65-1.825-7.674-2.782-11.755-2.795l-11.683-0.039c-14.814-0.097-26.826,11.976-26.655,26.788l0.103,8.887 c0.168,14.506,11.976,26.177,26.482,26.177h0.305c9.75,0,17.655,7.904,17.655,17.655v11.77c0,3.82,1.239,7.538,3.531,10.593 l22.952,30.602h7.433c12.044-20.791,19.05-44.864,19.05-70.621C317.794,157.806,314.062,139.954,307.43,123.586z"></path>
        <path d="M258.679,61.793h-11.506c-4.875,0-8.828,3.953-8.828,8.828v8.828c0,4.875-3.953,8.828-8.828,8.828 s-8.828,3.953-8.828,8.828v8.808c0,4.874,3.949,8.824,8.823,8.828l26.485,0.014c4.876,0.003,8.83-3.949,8.83-8.825 c0-4.874,3.951-8.825,8.825-8.825h19.66C283.953,83.373,272.174,71.468,258.679,61.793z"></path>
        <path d="M194.207,203.034h-17.655l-22.035-14.69c-2.9-1.933-6.307-2.965-9.793-2.965h-21.138v25.862 c0,5.903,2.951,11.415,7.862,14.69l18.621,12.414l15.317,45.95c1.397,4.19,5.318,7.016,9.734,7.016 c5.666,0,10.26-4.594,10.26-10.26v-33.878l15.07-15.07c1.655-1.655,2.585-3.901,2.585-6.242v-13.998 C203.035,206.987,199.083,203.034,194.207,203.034z"></path>
        <path d="M40.962,137.27l30.536,38.17c5.026,6.282,12.634,9.939,20.68,9.939h4.927v-17.655 c0-9.751,7.905-17.655,17.655-17.655h8.828l26.483-44.138h10.763c4.051,0,7.582-2.758,8.564-6.687l4.414-17.655 c1.393-5.571-2.822-10.968-8.564-10.968h-30.159c-1.743,0-3.447,0.515-4.897,1.482l-24.258,16.173v-8.828 c0-4.875-3.953-8.828-8.828-8.828H84.138h-0.793C63.449,88.142,48.529,111.112,40.962,137.27z"></path>
      </g>
      <g>
        <path d="M71.497,175.441c5.026,6.282,12.634,9.939,20.68,9.939h4.927v-17.655 c0-9.751,7.905-17.655,17.655-17.655h8.828l2.046-3.411c-1.239-7.524-2.046-15.196-2.046-23.072 c0-18.71,3.775-36.489,10.414-52.804c-1.353,0.17-2.668,0.561-3.811,1.322l-24.258,16.172v-8.828c0-4.875-3.953-8.828-8.828-8.828 H84.138h-0.685c-19.944,17.492-34.936,40.446-42.525,66.609L71.497,175.441z"></path>
        <path d="M185.38,281.05v-33.878l4.204-4.204c-22.137-13.983-40.057-33.913-51.614-57.589h-14.383v25.862 c0,5.903,2.951,11.415,7.862,14.69l18.621,12.414l15.317,45.95c1.397,4.19,5.318,7.016,9.734,7.016 C180.786,291.31,185.38,286.717,185.38,281.05z"></path>
      </g>
    </g>
  </symbol>
  <symbol version="1.0" id="star-large" xmlns="http://www.w3.org/2000/svg" xmlns:xlink="http://www.w3.org/1999/xlink" enable-background="new 0 0 64 64" xml:space="preserve" fill="#000000" viewBox="0 0 64 64">
    <g id="SVGRepo_bgCarrier" stroke-width="0"></g>
    <g id="SVGRepo_tracerCarrier" stroke-linecap="round" stroke-linejoin="round"></g>
    <g id="SVGRepo_iconCarrier">
      <path fill="#fff" d="M63.893,24.277c-0.238-0.711-0.854-1.229-1.595-1.343l-19.674-3.006L33.809,1.15 C33.479,0.448,32.773,0,31.998,0s-1.48,0.448-1.811,1.15l-8.815,18.778L1.698,22.935c-0.741,0.113-1.356,0.632-1.595,1.343 c-0.238,0.71-0.059,1.494,0.465,2.031l14.294,14.657L11.484,61.67c-0.124,0.756,0.195,1.517,0.822,1.957 c0.344,0.243,0.747,0.366,1.151,0.366c0.332,0,0.666-0.084,0.968-0.25l17.572-9.719l17.572,9.719c0.302,0.166,0.636,0.25,0.968,0.25 c0.404,0,0.808-0.123,1.151-0.366c0.627-0.44,0.946-1.201,0.822-1.957l-3.378-20.704l14.294-14.657 C63.951,25.771,64.131,24.987,63.893,24.277z"></path>
    </g>
  </symbol>
  <symbol version="1.1" id="sun-large" xmlns="http://www.w3.org/2000/svg" xmlns:xlink="http://www.w3.org/1999/xlink" xml:space="preserve" viewBox="0 0 511.999 511.999">
    <path d="M508.412,260.779l-78.431,22.839l67.538,45.833c4.126,2.8,2.03,9.253-2.953,9.095l-81.577-2.595
	l49.998,64.565c3.05,3.94-0.937,9.421-5.624,7.731l-76.825-27.702l27.698,76.825c1.69,4.687-3.792,8.676-7.731,5.624l-64.56-50.002
	l2.594,81.574c0.158,4.985-6.295,7.08-9.095,2.953l-45.825-67.538l-22.838,78.431c-1.393,4.782-8.167,4.782-9.56,0l-22.839-78.431
	l-45.833,67.538c-2.8,4.126-9.253,2.03-9.095-2.953l2.595-81.577l-64.565,49.998c-3.94,3.05-9.421-0.937-7.731-5.624l27.702-76.825
	l-76.825,27.698c-4.687,1.69-8.676-3.792-5.624-7.731l50.002-64.56l-81.574,2.594c-4.985,0.158-7.079-6.295-2.953-9.095
	l67.538-45.825L3.587,260.781c-4.782-1.393-4.782-8.167,0-9.56l78.429-22.842l-67.538-45.833c-4.126-2.8-2.03-9.253,2.953-9.095
	l81.577,2.595L49.01,111.483c-3.05-3.94,0.937-9.421,5.624-7.731l76.825,27.702l-27.697-76.825c-1.69-4.687,3.792-8.676,7.731-5.624
	l64.56,50.002l-2.594-81.574c-0.158-4.985,6.295-7.079,9.095-2.953l45.825,67.538l22.838-78.431c1.393-4.782,8.167-4.782,9.56,0
	l22.839,78.431l45.833-67.538c2.8-4.126,9.253-2.03,9.095,2.953l-2.595,81.577l64.565-49.998c3.94-3.05,9.421,0.937,7.731,5.624
	l-27.702,76.825l76.825-27.698c4.687-1.69,8.676,3.792,5.624,7.731l-50.002,64.56l81.574-2.594c4.985-0.158,7.08,6.295,2.953,9.095
	l-67.538,45.825l78.431,22.838C513.194,252.612,513.194,259.387,508.412,260.779z"></path>
    <circle cx="255.995" cy="255.996" r="159.305"></circle>
    <circle cx="255.995" cy="255.996" r="129.436"></circle>
  </symbol>
  <symbol fill="#ffffff" xmlns="http://www.w3.org/2000/svg" stroke="#ffffff" viewBox="0 0 24 24" id="sunrise">
    <g id="SVGRepo_bgCarrier" stroke-width="0"></g>
    <g id="SVGRepo_tracerCarrier" stroke-linecap="round" stroke-linejoin="round"></g>
    <g id="SVGRepo_iconCarrier">
      <path d="M7,15a5,5,0,0,1,10,0,1,1,0,0,1-2,0,3,3,0,0,0-6,0,1,1,0,0,1-2,0Zm11-4.586.707-.707a1,1,0,0,0-1.414-1.414L16.586,9A1,1,0,1,0,18,10.414ZM20,16h1a1,1,0,0,0,0-2H20a1,1,0,0,0,0,2ZM4,14H3a1,1,0,0,0,0,2H4a1,1,0,0,0,0-2ZM5.293,9.707,6,10.414A1,1,0,1,0,7.414,9l-.707-.707A1,1,0,0,0,5.293,9.707ZM4,18a1,1,0,0,0,1,1H19a1,1,0,0,0,0-2H5A1,1,0,0,0,4,18Zm4,3a1,1,0,0,0,0,2h8a1,1,0,0,0,0-2ZM12,9a1,1,0,0,0,1-1V4.414l1.293,1.293a1,1,0,0,0,1.414-1.414l-3-3a1,1,0,0,0-1.416,0l-3,3A1,1,0,0,0,9.707,5.707L11,4.414V8A1,1,0,0,0,12,9Z"></path>
    </g>
  </symbol>
  <symbol fill="#fff" xmlns="http://www.w3.org/2000/svg" stroke="#fff" viewBox="0 0 24 24" id="sunset">
    <g id="SVGRepo_bgCarrier" stroke-width="0"></g>
    <g id="SVGRepo_tracerCarrier" stroke-linecap="round" stroke-linejoin="round"></g>
    <g id="SVGRepo_iconCarrier">
      <path d="M7,15a5,5,0,0,1,10,0,1,1,0,0,1-2,0,3,3,0,0,0-6,0,1,1,0,0,1-2,0ZM17.293,8.293,16.586,9A1,1,0,1,0,18,10.414l.707-.707a1,1,0,0,0-1.414-1.414ZM22,15a1,1,0,0,0-1-1H20a1,1,0,0,0,0,2h1A1,1,0,0,0,22,15ZM4,14H3a1,1,0,0,0,0,2H4a1,1,0,0,0,0-2ZM6.707,8.293A1,1,0,0,0,5.293,9.707L6,10.414A1,1,0,1,0,7.414,9ZM4,18a1,1,0,0,0,1,1H19a1,1,0,0,0,0-2H5A1,1,0,0,0,4,18Zm13,4a1,1,0,0,0-1-1H8a1,1,0,0,0,0,2h8A1,1,0,0,0,17,22ZM12,1a1,1,0,0,0-1,1V5.586L9.707,4.293A1,1,0,0,0,8.293,5.707l3,3a1,1,0,0,0,1.414,0l3-3a1,1,0,1,0-1.414-1.414L13,5.586V2A1,1,0,0,0,12,1Z"></path>
    </g>
  </symbol>
  <symbol version="1.1" id="uvindex" xmlns="http://www.w3.org/2000/svg" xmlns:xlink="http://www.w3.org/1999/xlink" xml:space="preserve" fill="#ffffff" viewBox="0 0 512 512">
    <g id="SVGRepo_bgCarrier" stroke-width="0"></g>
    <g id="SVGRepo_tracerCarrier" stroke-linecap="round" stroke-linejoin="round"></g>
    <g id="SVGRepo_iconCarrier">
      <g>
        <rect y="254.042" width="512" height="32"></rect>
        <path d="M227.984,335.426h-27.406c-1.297,0-2.156,0.859-2.156,2.156v91.492c0,17.485-9.719,27.406-24.39,27.406 c-14.891,0-24.594-9.922-24.594-27.406v-91.492c0-1.297-0.874-2.156-2.156-2.156h-27.406c-1.297,0-2.156,0.859-2.156,2.156v90.625 c0,36.477,23.297,56.329,56.313,56.329c32.797,0,56.109-19.852,56.109-56.329v-90.625 C230.14,336.285,229.281,335.426,227.984,335.426z"></path>
        <path d="M392.453,335.426h-27.844c-1.515,0-2.374,0.648-2.812,2.156l-28.485,96.242h-0.641l-29.343-96.242 c-0.438-1.508-1.297-2.156-2.813-2.156h-28.046c-1.516,0-2.375,0.859-1.938,2.375l46.609,142.203 c0.422,1.297,1.282,2.156,2.797,2.156h25.032c1.297,0,2.156-0.859,2.594-2.156l46.609-142.203 C394.609,336.285,393.734,335.426,392.453,335.426z"></path>
        <polygon points="355.523,145.91 378.281,171.301 417.609,75.386 317.969,104.019 338.648,127.082 245.5,202.714 29.625,27.465 13.718,47.058 245.5,235.23 "></polygon>
      </g>
    </g>
  </symbol>
  <symbol fill="none" xmlns="http://www.w3.org/2000/svg" stroke="#fff" viewBox="0 0 24 24" id="wind-speed">
    <g id="SVGRepo_bgCarrier" stroke-width="0"></g>
    <g id="SVGRepo_tracerCarrier" stroke-linecap="round" stroke-linejoin="round"></g>
    <g id="SVGRepo_iconCarrier">
      <path d="M2 15H18.5C20.43 15 22 16.57 22 18.5C22 20.43 20.43 22 18.5 22C16.57 22 15 20.43 15 18.5V18" stroke="#fff" stroke-width="1.5" stroke-miterlimit="10" stroke-linecap="round" stroke-linejoin="round"></path>
      <path d="M2 12H18.5C20.42 12 22 10.43 22 8.5C22 6.58 20.42 5 18.5 5C16.58 5 15 6.57 15 8.5V9" stroke="#fff" stroke-width="1.5" stroke-miterlimit="10" stroke-linecap="round" stroke-linejoin="round"></path>
      <path d="M2 9H9.31C10.8 9 12 7.79 12 6.31C12 4.82 10.79 3.62 9.31 3.62C7.82 3.62 6.62 4.83 6.62 6.31V6.69" stroke="#fff" stroke-width="1.5" stroke-miterlimit="10" stroke-linecap="round" stroke-linejoin="round"></path>
    </g>
  </symbol>
</svg>