<svg width="0" height="0" class="hidden">
  <symbol xmlns="http://www.w3.org/2000/svg" fill='#f5b952' stroke='#fff' viewBox="0 0 57.47 57.47" id="clear-day">
    <defs></defs>
    <title>clear-dayAsset 222colored</title>
    <g id="Layer_2">
      <g id="Layer_1-2">
        <path d="M28.7,43.71h0a14.86,14.86,0,1,0,0-29.71h.05a14.86,14.86,0,1,0,0,29.71H28.7Z"></path>
        <line x1="8.55" y1="28.73" x2="1.5" y2="28.73"></line>
        <line x1="14.15" y1="42.85" x2="9.07" y2="47.75"></line>
        <line x1="14.75" y1="14.28" x2="9.82" y2="9.24"></line>
        <line x1="10.03" y1="36.46" x2="3.51" y2="39.14"></line>
        <line x1="21.11" y1="10.12" x2="18.39" y2="3.62"></line>
        <line x1="20.57" y1="47.38" x2="17.75" y2="53.85"></line>
        <line x1="10.25" y1="20.74" x2="3.78" y2="17.95"></line>
        <path d="M28.7,43.71h0a14.86,14.86,0,1,0,0-29.71h.05a14.86,14.86,0,1,0,0,29.71H28.7Z"></path>
        <line x1="48.92" y1="28.73" x2="55.97" y2="28.73"></line>
        <line x1="28.73" y1="8.55" x2="28.73" y2="1.5"></line>
        <line x1="28.73" y1="48.92" x2="28.73" y2="55.97"></line>
        <line x1="43.32" y1="42.85" x2="48.39" y2="47.75"></line>
        <line x1="42.72" y1="14.28" x2="47.65" y2="9.24"></line>
        <line x1="47.44" y1="36.46" x2="53.96" y2="39.14"></line>
        <line x1="36.36" y1="10.12" x2="39.08" y2="3.62"></line>
        <line x1="36.89" y1="47.38" x2="39.72" y2="53.85"></line>
        <line x1="47.21" y1="20.74" x2="53.69" y2="17.95"></line>
      </g>
    </g>
  </symbol>
  <symbol xmlns="http://www.w3.org/2000/svg" fill='#f5b952' stroke='#fff' viewBox="0 0 50 50" id="clear-night">
    <defs></defs>
    <title>clear-nightAsset 221colored</title>
    <g id="Layer_2">
      <g id="Layer_1-2">
        <path d="M30.56,34.05h0a13.57,13.57,0,1,1,0-27.13,13.79,13.79,0,0,1,3.71.52,19,19,0,1,0-13.79,32h0a18.94,18.94,0,0,0,13.78-5.94A14.15,14.15,0,0,1,30.56,34.05Z"></path>
        <path d="M30.56,34.05h0a13.57,13.57,0,1,1,0-27.13,13.79,13.79,0,0,1,3.71.52,19,19,0,1,0-13.79,32h0a18.94,18.94,0,0,0,13.78-5.94A14.15,14.15,0,0,1,30.56,34.05Z"></path>
      </g>
    </g>
  </symbol>  
  <symbol xmlns="http://www.w3.org/2000/svg" xmlns:xlink="http://www.w3.org/1999/xlink" aria-hidden="true" role="img" preserveAspectRatio="xMidYMid meet" fill="#000000" viewBox="0 0 64 64" id="fog">
    <g id="SVGRepo_bgCarrier" stroke-width="0"></g>
    <g id="SVGRepo_tracerCarrier" stroke-linecap="round" stroke-linejoin="round"></g>
    <g id="SVGRepo_iconCarrier">
      <path d="M2 29.6c15.8-12.6 23.3.5 32.8.5c7.5 0 16.8-13.1 27.2-2.4c-11.9-5.7-16.3 6.5-28.7 6.5c-9.5 0-13.2-11.3-31.3-4.6" fill="#dbdbdb"></path>
      <path d="M62 39.7c-9.2-7.6-15.1-1.4-22.7 1.8c-4.8 2-9.8 1.5-14.8-3.8c3.6 1.3 11.5 5.6 19.3-2c-6.7 3-15.1.9-21.9-2.5c-7.5-3.7-13.6-4.3-19.9 2.5c3.9-3 9.6-2.3 14-1.1c-2.8.1-8.9.8-14 8.7C17.4 30.5 23 48 35.1 48c11.7 0 10.6-13.1 26.9-8.3" fill="#eeeded"></path>
      <path d="M2 25.3c1.9-5.4 15.2-13.2 25.8.1C13 18.6 2 25.3 2 25.3" fill="#dbdbdb"></path>
      <path d="M42.1 19.8c6.2-6.8 16.1-3.1 19.9.3c-3.1-.4-12.5-2.4-16.5 2c-6.4 6.8-13.9 5.8-16.3 3.4c0-.1 7.6.2 12.9-5.7" fill="#eeeded"></path>
      <path d="M45.4 35.4c8-13.3 16.6-2.1 16.6-2.1c-9.4-3.3-16.6 2.1-16.6 2.1" fill="#dbdbdb"></path>
    </g>
  </symbol>
  <symbol xmlns="http://www.w3.org/2000/svg" viewBox="0 0 98.7 70.44" fill='#cae3f6' stroke='#fff' id="hail">
    <defs></defs>
    <title>hailAsset 204colored</title>
    <g id="Layer_2">
      <g id="Layer_1-2">
        <polygon points="48.91 40.13 52.48 40.16 53.62 43.57 54.72 47.02 51.83 49.16 48.87 51.27 45.91 49.16 43.03 47.02 44.13 43.52 45.26 40.16 48.91 40.13"></polygon>
        <polygon points="70.87 40.13 74.44 40.16 75.58 43.57 76.68 47.02 73.79 49.16 70.83 51.27 67.87 49.16 64.99 47.02 66.09 43.52 67.22 40.16 70.87 40.13"></polygon>
        <polygon points="48.9 57.46 51.44 57.48 52.25 59.91 53.03 62.37 50.98 63.89 48.87 65.39 46.76 63.89 44.71 62.37 45.5 59.87 46.3 57.48 48.9 57.46"></polygon>
        <polygon points="64.52 57.46 67.06 57.48 67.88 59.91 68.65 62.37 66.6 63.89 64.49 65.39 62.38 63.89 60.34 62.37 61.12 59.87 61.92 57.48 64.52 57.46"></polygon>
        <path d="M59.26,31.64H97.15a15.06,15.06,0,0,0-12.1-14.06,15.87,15.87,0,0,0-7.62.47c-1.76.56-2.5.2-3.26-1.52a15.1,15.1,0,0,0-14.88-9.1A14.82,14.82,0,0,0,52,9.93c-1.62,1.06-2.55.86-3.63-.79a16.47,16.47,0,0,0-30.13,6.18c-.53,3.41-1.13,3.15-3.77,3.45-12.16,0-13,12.67-12.95,12.87H39.61"></path>
        <polygon points="48.91 40.13 52.48 40.16 53.62 43.57 54.72 47.02 51.83 49.16 48.87 51.27 45.91 49.16 43.03 47.02 44.13 43.52 45.26 40.16 48.91 40.13"></polygon>
        <polygon points="70.87 40.13 74.44 40.16 75.58 43.57 76.68 47.02 73.79 49.16 70.83 51.27 67.87 49.16 64.99 47.02 66.09 43.52 67.22 40.16 70.87 40.13"></polygon>
        <polygon points="48.9 57.46 51.44 57.48 52.25 59.91 53.03 62.37 50.98 63.89 48.87 65.39 46.76 63.89 44.71 62.37 45.5 59.87 46.3 57.48 48.9 57.46"></polygon>
        <polygon points="64.52 57.46 67.06 57.48 67.88 59.91 68.65 62.37 66.6 63.89 64.49 65.39 62.38 63.89 60.34 62.37 61.12 59.87 61.92 57.48 64.52 57.46"></polygon>
        <path d="M59.26,31.64H97.15a15.06,15.06,0,0,0-12.1-14.06,15.87,15.87,0,0,0-7.62.47c-1.76.56-2.5.2-3.26-1.52a15.1,15.1,0,0,0-14.88-9.1A14.82,14.82,0,0,0,52,9.93c-1.62,1.06-2.55.86-3.63-.79a16.47,16.47,0,0,0-30.13,6.18c-.53,3.41-1.13,3.15-3.77,3.45-12.16,0-13,12.67-12.95,12.87H39.61"></path>
      </g>
    </g>
  </symbol>
  <symbol xmlns="http://www.w3.org/2000/svg" fill=#cae3f6 stroke='#fff' viewBox="0 0 102.7 99.44" id="partly-cloudy-day">
    <defs></defs>
    <title>partly-cloudy-dayAsset 220colored</title>
    <g id="Layer_2">
      <g id="Layer_1-2">
        <path d="M59.26,58H97.15a15.05,15.05,0,0,0-12.1-14.06,15.87,15.87,0,0,0-7.62.47c-1.76.56-2.5.2-3.26-1.53a15.11,15.11,0,0,0-14.88-9.09A14.91,14.91,0,0,0,52,36.23c-1.62,1.07-2.55.86-3.63-.78a16.47,16.47,0,0,0-30.13,6.18c-.53,3.41-1.13,3.15-3.77,3.45C2.29,45.08,1.48,57.75,1.5,58H39.61"></path>
        <path d="M87,29.82h0A10.15,10.15,0,1,0,87,9.53h0a10.15,10.15,0,1,0,0,20.29h0Z"></path>
        <path d="M59.26,58H97.15a15.05,15.05,0,0,0-12.1-14.06,15.87,15.87,0,0,0-7.62.47c-1.76.56-2.5.2-3.26-1.53a15.11,15.11,0,0,0-14.88-9.09A14.91,14.91,0,0,0,52,36.23c-1.62,1.07-2.55.86-3.63-.78a16.47,16.47,0,0,0-30.13,6.18c-.53,3.41-1.13,3.15-3.77,3.45C2.29,45.08,1.48,57.75,1.5,58H39.61"></path>
        <line x1="73.2" y1="19.6" x2="68.39" y2="19.6"></line>
        <line x1="77.02" y1="29.24" x2="73.56" y2="32.58"></line>
        <line x1="77.43" y1="9.73" x2="74.07" y2="6.29"></line>
        <line x1="74.21" y1="24.87" x2="69.76" y2="26.7"></line>
        <line x1="81.78" y1="6.89" x2="79.92" y2="2.45"></line>
        <line x1="81.41" y1="32.33" x2="79.48" y2="36.74"></line>
        <line x1="74.37" y1="14.14" x2="69.94" y2="12.23"></line>
        <path fill='#f5b952' d="M87,29.82h0A10.15,10.15,0,1,0,87,9.53h0a10.15,10.15,0,1,0,0,20.29h0Z"></path>
        <line x1="100.76" y1="19.6" x2="105.58" y2="19.6"></line>
        <line x1="86.98" y1="5.82" x2="86.98" y2="1"></line>
        <line x1="86.98" y1="33.38" x2="86.98" y2="38.19"></line>
        <line x1="96.94" y1="29.24" x2="100.41" y2="32.58"></line>
        <line x1="96.53" y1="9.73" x2="99.9" y2="6.29"></line>
        <line x1="99.76" y1="24.87" x2="104.21" y2="26.7"></line>
        <line x1="92.19" y1="6.89" x2="94.05" y2="2.45"></line>
        <line x1="92.56" y1="32.33" x2="94.49" y2="36.74"></line>
        <line x1="99.6" y1="14.14" x2="104.03" y2="12.23"></line>
      </g>
    </g>
  </symbol>
  <symbol xmlns="http://www.w3.org/2000/svg" viewBox="0 0 102.7 99.44" fill='#cae3f6' stroke='#fff' id="partly-cloudy-night">
    <defs></defs>
    <title>partly-cloudy-nightAsset 219colored</title>
    <g id="Layer_2">
      <g id="Layer_1-2">
        <path d="M59.26,51.74H97.15a15.05,15.05,0,0,0-12.1-14.06,15.63,15.63,0,0,0-7.62.47c-1.76.56-2.5.2-3.26-1.53a15.1,15.1,0,0,0-14.88-9.09A14.81,14.81,0,0,0,52,30c-1.62,1.06-2.55.86-3.63-.78A16.42,16.42,0,0,0,31.51,21.9c-7,1.45-12.22,6.6-13.29,13.52-.53,3.41-1.13,3.14-3.77,3.45-12.16,0-13,12.67-12.95,12.87H39.61"></path>
        <path  d="M99,17.47h0A10.77,10.77,0,1,1,84.35,1.93,15.07,15.07,0,1,0,97.29,26.41h0a15,15,0,0,0,3.19-11.48A10.56,10.56,0,0,1,99,17.47Z"></path>
        <path d="M59.26,51.74H97.15a15.05,15.05,0,0,0-12.1-14.06,15.63,15.63,0,0,0-7.62.47c-1.76.56-2.5.2-3.26-1.53a15.1,15.1,0,0,0-14.88-9.09A14.81,14.81,0,0,0,52,30c-1.62,1.06-2.55.86-3.63-.78A16.42,16.42,0,0,0,31.51,21.9c-7,1.45-12.22,6.6-13.29,13.52-.53,3.41-1.13,3.14-3.77,3.45-12.16,0-13,12.67-12.95,12.87H39.61"></path>
        <path fill='#f5b952' d="M99,17.47h0A10.77,10.77,0,1,1,84.35,1.93,15.07,15.07,0,1,0,97.29,26.41h0a15,15,0,0,0,3.19-11.48A10.56,10.56,0,0,1,99,17.47Z"></path>
      </g>
    </g>
  </symbol>
  <symbol xmlns="http://www.w3.org/2000/svg" viewBox="0 0 98.7 70.44" fill='#cae3f6' stroke='#fff' id="rain">
    <defs></defs>
    <title>rainAsset 217colored</title>
    <g id="Layer_2">
      <g id="Layer_1-2">
        <path d="M50.29,40.29c-2.48,1.5-4.72,2.77-6.85,4.2a4.45,4.45,0,0,0,3.37,8,4.54,4.54,0,0,0,3.47-4.36C50.33,45.65,50.29,43.18,50.29,40.29Z"></path>
        <path d="M71.91,40.29c-2.48,1.5-4.72,2.77-6.85,4.2a4.45,4.45,0,0,0,3.36,8,4.51,4.51,0,0,0,3.47-4.36C72,45.65,71.91,43.18,71.91,40.29Z"></path>
        <path d="M58.29,56.67c-2.48,1.51-4.72,2.78-6.85,4.2a4.45,4.45,0,0,0,3.37,8,4.52,4.52,0,0,0,3.47-4.36C58.33,62,58.29,59.56,58.29,56.67Z"></path>
        <path d="M59.26,31.64H97.15a15.06,15.06,0,0,0-12.1-14.06,15.87,15.87,0,0,0-7.62.47c-1.76.56-2.5.2-3.26-1.52a15.1,15.1,0,0,0-14.88-9.1A14.82,14.82,0,0,0,52,9.93c-1.62,1.06-2.55.86-3.63-.79a16.47,16.47,0,0,0-30.13,6.18c-.53,3.41-1.13,3.15-3.77,3.45-12.16,0-13,12.67-12.95,12.87H39.61"></path>
        <path d="M50.29,40.29c-2.48,1.5-4.72,2.77-6.85,4.2a4.45,4.45,0,0,0,3.37,8,4.54,4.54,0,0,0,3.47-4.36C50.33,45.65,50.29,43.18,50.29,40.29Z"></path>
        <path d="M71.91,40.29c-2.48,1.5-4.72,2.77-6.85,4.2a4.45,4.45,0,0,0,3.36,8,4.51,4.51,0,0,0,3.47-4.36C72,45.65,71.91,43.18,71.91,40.29Z"></path>
        <path d="M58.29,56.67c-2.48,1.51-4.72,2.78-6.85,4.2a4.45,4.45,0,0,0,3.37,8,4.52,4.52,0,0,0,3.47-4.36C58.33,62,58.29,59.56,58.29,56.67Z"></path>
        <path d="M59.26,31.64H97.15a15.06,15.06,0,0,0-12.1-14.06,15.87,15.87,0,0,0-7.62.47c-1.76.56-2.5.2-3.26-1.52a15.1,15.1,0,0,0-14.88-9.1A14.82,14.82,0,0,0,52,9.93c-1.62,1.06-2.55.86-3.63-.79a16.47,16.47,0,0,0-30.13,6.18c-.53,3.41-1.13,3.15-3.77,3.45-12.16,0-13,12.67-12.95,12.87H39.61"></path>&amp;gt;
      </g>
    </g>
  </symbol>
  <symbol xmlns="http://www.w3.org/2000/svg" viewBox="0 0 98.7 70.44" fill='#cae3f6' id="rain-snow">
    <defs></defs>
    <title>rain-snow Asset 213colored</title>
    <g id="Layer_2">
      <g id="Layer_1-2">
        <path d="M71.91,40.49c-2.48,1.51-4.72,2.78-6.85,4.21a4.44,4.44,0,0,0,3.36,8,4.5,4.5,0,0,0,3.47-4.36C72,45.86,71.91,43.38,71.91,40.49Z"></path>
        <path d="M59.26,31.64H97.15a15.06,15.06,0,0,0-12.1-14.06,15.87,15.87,0,0,0-7.62.47c-1.76.56-2.5.2-3.26-1.52a15.1,15.1,0,0,0-14.88-9.1A14.82,14.82,0,0,0,52,9.93c-1.62,1.06-2.55.86-3.63-.79a16.47,16.47,0,0,0-30.13,6.18c-.53,3.41-1.13,3.15-3.77,3.45-12.16,0-13,12.67-12.95,12.87H39.61"></path>
        <line stroke='#fff' x1="47.46" y1="40.7" x2="48.71" y2="39.93"></line>
        <line stroke='#fff' x1="48.71" y1="51.78" x2="47.49" y2="51.08"></line>
        <line stroke='#fff' x1="47.49" y1="45.87" x2="52.11" y2="50.48"></line>
        <polyline stroke='#fff' points="52.55 49.18 51.19 49.53 50.85 50.95"></polyline>
        <line stroke='#fff' x1="52.18" y1="41.2" x2="47.47" y2="45.94"></line>
        <polyline stroke='#fff' points="50.81 40.84 51.17 42.2 52.59 42.53"></polyline>
        <line stroke='#fff' x1="54.12" y1="45.87" x2="47.49" y2="45.87"></line>
        <polyline stroke='#fff' points="53.41 44.65 52.7 45.86 53.47 47.1"></polyline>
        <line stroke='#fff' x1="47.49" y1="52.16" x2="47.49" y2="39.28"></line>
        <line stroke='#fff' x1="47.49" y1="52.4" x2="47.49" y2="39.28"></line>
        <line stroke='#fff' x1="47.5" y1="50.98" x2="46.26" y2="51.75"></line>
        <line stroke='#fff' x1="46.26" y1="39.9" x2="47.47" y2="40.61"></line>
        <line stroke='#fff' x1="47.47" y1="45.81" x2="42.85" y2="41.2"></line>
        <polyline stroke='#fff' points="42.42 42.51 43.77 42.15 44.11 40.73"></polyline>
        <line stroke='#fff' x1="42.79" y1="50.48" x2="47.5" y2="45.74"></line>
        <polyline stroke='#fff' points="44.15 50.84 43.8 49.49 42.38 49.15"></polyline>
        <line stroke='#fff' x1="40.85" y1="45.81" x2="47.47" y2="45.81"></line>
        <polyline stroke='#fff' points="41.56 47.03 42.27 45.82 41.5 44.58"></polyline>
        <line stroke='#fff' x1="56.34" y1="57.89" x2="57.58" y2="57.13"></line>
        <line stroke='#fff' x1="57.58" y1="68.98" x2="56.37" y2="68.27"></line>
        <line stroke='#fff' x1="56.36" y1="63.06" x2="60.99" y2="67.67"></line>
        <polyline stroke='#fff' points="61.42 66.37 60.06 66.72 59.73 68.14"></polyline>
        <line stroke='#fff' x1="61.05" y1="58.39" x2="56.34" y2="63.13"></line>
        <polyline stroke='#fff'  points="59.69 58.03 60.04 59.39 61.46 59.72"></polyline>
        <line stroke='#fff' x1="62.99" y1="63.06" x2="56.36" y2="63.06"></line>
        <polyline stroke='#fff' points="62.28 61.84 61.57 63.05 62.34 64.29"></polyline>
        <line stroke='#fff' x1="56.36" y1="69.35" x2="56.36" y2="56.48"></line>
        <line stroke='#fff' x1="56.36" y1="69.59" x2="56.36" y2="56.48"></line>
        <line stroke='#fff' x1="56.37" y1="68.17" x2="55.13" y2="68.94"></line>
        <line stroke='#fff' x1="55.13" y1="57.09" x2="56.34" y2="57.8"></line>
        <line stroke='#fff' x1="56.35" y1="63" x2="51.72" y2="58.39"></line>
        <polyline stroke='#fff' points="51.29 59.7 52.65 59.34 52.98 57.92"></polyline>
        <line stroke='#fff' x1="51.66" y1="67.67" x2="56.37" y2="62.93"></line>
        <polyline stroke='#fff' points="53.02 68.04 52.67 66.68 51.25 66.34"></polyline>
        <line stroke='#fff' x1="49.72" y1="63" x2="56.35" y2="63"></line>
        <polyline stroke='#fff' points="50.43 64.23 51.14 63.01 50.37 61.77"></polyline>
        <path d="M71.91,40.49c-2.48,1.51-4.72,2.78-6.85,4.21a4.44,4.44,0,0,0,3.36,8,4.5,4.5,0,0,0,3.47-4.36C72,45.86,71.91,43.38,71.91,40.49Z"></path>
        <path d="M59.26,31.64H97.15a15.06,15.06,0,0,0-12.1-14.06,15.87,15.87,0,0,0-7.62.47c-1.76.56-2.5.2-3.26-1.52a15.1,15.1,0,0,0-14.88-9.1A14.82,14.82,0,0,0,52,9.93c-1.62,1.06-2.55.86-3.63-.79a16.47,16.47,0,0,0-30.13,6.18c-.53,3.41-1.13,3.15-3.77,3.45-12.16,0-13,12.67-12.95,12.87H39.61"></path>
      </g>
    </g>
  </symbol>
  <symbol xmlns="http://www.w3.org/2000/svg" fill=#cae3f6 viewBox="0 0 98.7 70.44" id="rain-snow-showers-day">
    <defs></defs>
    <title>rain-snow-showers-dayAsset 212colored</title>
    <g id="Layer_2">
      <g id="Layer_1-2">
        <path d="M71.91,72.36c-2.48,1.51-4.72,2.78-6.85,4.2a4.45,4.45,0,0,0,3.36,8,4.5,4.5,0,0,0,3.47-4.36C72,77.73,71.91,75.25,71.91,72.36Z"></path>
        <path d="M59.26,62.32H97.15a15.07,15.07,0,0,0-12.1-14.06,15.87,15.87,0,0,0-7.62.47c-1.76.56-2.5.2-3.26-1.52a15.1,15.1,0,0,0-14.88-9.1A14.82,14.82,0,0,0,52,40.61c-1.62,1.06-2.55.86-3.63-.79a16.43,16.43,0,0,0-16.84-7.33c-7,1.45-12.22,6.59-13.29,13.51-.53,3.41-1.13,3.15-3.77,3.45-12.16,0-13,12.68-12.95,12.87H39.61"></path>
        <path d="M88.72,42.48h0a14.49,14.49,0,0,0,0-29h0a14.49,14.49,0,0,0,0,29h0Z"></path>
        <line stroke='#fff' x1="47.46" y1="72.57" x2="48.71" y2="71.8"></line>
        <line stroke='#fff' x1="48.71" y1="83.65" x2="47.49" y2="82.94"></line>
        <line stroke='#fff' x1="47.49" y1="77.74" x2="52.11" y2="82.35"></line>
        <polyline stroke='#fff' points="52.55 81.04 51.19 81.4 50.85 82.82"></polyline>
        <line stroke='#fff' x1="52.18" y1="73.07" x2="47.47" y2="77.81"></line>
        <polyline stroke='#fff' points="50.81 72.7 51.17 74.06 52.59 74.4"></polyline>
        <line stroke='#fff' x1="54.12" y1="77.74" x2="47.49" y2="77.74"></line>
        <polyline stroke='#fff' points="53.41 76.51 52.7 77.73 53.47 78.97"></polyline>
        <line stroke='#fff' x1="47.49" y1="84.02" x2="47.49" y2="71.15"></line>
        <line stroke='#fff' x1="47.49" y1="84.26" x2="47.49" y2="71.15"></line>
        <line stroke='#fff' x1="47.5" y1="82.85" x2="46.26" y2="83.61"></line>
        <line stroke='#fff' x1="46.26" y1="71.76" x2="47.47" y2="72.47"></line>
        <line stroke='#fff' x1="47.47" y1="77.68" x2="42.85" y2="73.07"></line>
        <polyline stroke='#fff' points="42.42 74.37 43.77 74.02 44.11 72.6"></polyline>
        <line stroke='#fff' x1="42.79" y1="82.35" x2="47.5" y2="77.61"></line>
        <polyline stroke='#fff' points="44.15 82.71 43.8 81.35 42.38 81.02"></polyline>
        <line stroke='#fff' x1="40.85" y1="77.68" x2="47.47" y2="77.68"></line>
        <polyline stroke='#fff' points="41.56 78.9 42.27 77.69 41.5 76.45"></polyline>
        <line stroke='#fff' x1="56.34" y1="89.76" x2="57.58" y2="88.99"></line>
        <line stroke='#fff' x1="57.58" y1="100.84" x2="56.37" y2="100.13"></line>
        <line stroke='#fff' x1="56.36" y1="94.93" x2="60.99" y2="99.54"></line>
        <polyline stroke='#fff' points="61.42 98.23 60.06 98.59 59.73 100.01"></polyline>
        <line stroke='#fff' x1="61.05" y1="90.26" x2="56.34" y2="95"></line>
        <polyline points="59.69 89.89 60.04 91.25 61.46 91.59"></polyline>
        <line stroke='#fff' x1="62.99" y1="94.93" x2="56.36" y2="94.93"></line>
        <polyline stroke='#fff' points="62.28 93.7 61.57 94.92 62.34 96.16"></polyline>
        <line stroke='#fff' x1="56.36" y1="101.21" x2="56.36" y2="88.34"></line>
        <line stroke='#fff' x1="56.36" y1="101.46" x2="56.36" y2="88.34"></line>
        <line stroke='#fff' x1="56.37" y1="100.04" x2="55.13" y2="100.81"></line>
        <line stroke='#fff' x1="55.13" y1="88.96" x2="56.34" y2="89.66"></line>
        <line stroke='#fff' x1="56.35" y1="94.87" x2="51.72" y2="90.26"></line>
        <polyline stroke='#fff' points="51.29 91.56 52.65 91.21 52.98 89.79"></polyline>
        <line stroke='#fff' x1="51.66" y1="99.54" x2="56.37" y2="94.8"></line>
        <polyline stroke='#fff' points="53.02 99.9 52.67 98.54 51.25 98.21"></polyline>
        <line stroke='#fff' x1="49.72" y1="94.87" x2="56.35" y2="94.87"></line>
        <polyline stroke='#fff' points="50.43 96.09 51.14 94.88 50.37 93.64"></polyline>
        <path d="M71.91,72.36c-2.48,1.51-4.72,2.78-6.85,4.2a4.45,4.45,0,0,0,3.36,8,4.5,4.5,0,0,0,3.47-4.36C72,77.73,71.91,75.25,71.91,72.36Z"></path>
        <path d="M59.26,62.32H97.15a15.07,15.07,0,0,0-12.1-14.06,15.87,15.87,0,0,0-7.62.47c-1.76.56-2.5.2-3.26-1.52a15.1,15.1,0,0,0-14.88-9.1A14.82,14.82,0,0,0,52,40.61c-1.62,1.06-2.55.86-3.63-.79a16.43,16.43,0,0,0-16.84-7.33c-7,1.45-12.22,6.59-13.29,13.51-.53,3.41-1.13,3.15-3.77,3.45-12.16,0-13,12.68-12.95,12.87H39.61"></path>
        <line stroke='#fff' x1="69.07" y1="28.05" x2="62.2" y2="28.05"></line>
        <line stroke='#fff' x1="75.11" y1="13.96" x2="70.3" y2="9.05"></line>
        <line stroke='#fff' x1="81.32" y1="9.91" x2="78.66" y2="3.56"></line>
        <line stroke='#fff' x1="70.73" y1="20.26" x2="64.42" y2="17.54"></line>
        <path fill='#f5b952' d="M88.72,42.66h0a14.49,14.49,0,0,0,0-29h0a14.49,14.49,0,1,0,0,29h0Z"></path>
        <line stroke='#fff' x1="108.43" y1="28.05" x2="115.3" y2="28.05"></line>
        <line stroke='#fff' x1="88.75" y1="8.38" x2="88.75" y2="1.5"></line>
        <line stroke='#fff' x1="102.97" y1="41.82" x2="107.92" y2="46.59"></line>
        <line stroke='#fff' x1="102.39" y1="13.96" x2="107.2" y2="9.05"></line>
        <line stroke='#fff' x1="106.99" y1="35.59" x2="113.35" y2="38.2"></line>
        <line stroke='#fff' x1="96.18" y1="9.91" x2="98.84" y2="3.56"></line>
        <line stroke='#fff' x1="106.77" y1="20.26" x2="113.08" y2="17.54"></line>
      </g>
    </g>
  </symbol>
  <symbol xmlns="http://www.w3.org/2000/svg" fill='#cae3f6' viewBox="0 0 98.7 70.44" id="rain-snow-showers-night">
    <defs></defs>
    <title>rain-snow-showers-nightAsset 211colored</title>
    <g id="Layer_2">
      <g id="Layer_1-2">
        <path d="M71.91,62.79c-2.48,1.5-4.72,2.77-6.85,4.2a4.45,4.45,0,0,0,3.36,8,4.51,4.51,0,0,0,3.47-4.36C72,68.15,71.91,65.68,71.91,62.79Z"></path>
        <path d="M59.26,51.74H97.15a15.05,15.05,0,0,0-12.1-14.06,15.63,15.63,0,0,0-7.62.47c-1.76.56-2.5.2-3.26-1.53a15.1,15.1,0,0,0-14.88-9.09A14.81,14.81,0,0,0,52,30c-1.62,1.06-2.55.86-3.63-.78A16.42,16.42,0,0,0,31.51,21.9c-7,1.45-12.22,6.6-13.29,13.52-.53,3.41-1.13,3.14-3.77,3.45-12.16,0-13,12.67-12.95,12.87H39.61"></path>
        <path d="M99,17.77h0A10.77,10.77,0,1,1,82.17,4.26a10.44,10.44,0,0,1,2.18-2A15.07,15.07,0,1,0,97.29,26.7h0a15,15,0,0,0,3.19-11.48A11,11,0,0,1,99,17.77Z"></path>
        <line stroke='#fff'x1="47.46" y1="62.99" x2="48.71" y2="62.23"></line>
        <line stroke='#fff'x1="48.71" y1="74.08" x2="47.49" y2="73.37"></line>
        <line stroke='#fff'x1="47.49" y1="68.16" x2="52.11" y2="72.77"></line>
        <polyline stroke='#fff'points="52.55 71.47 51.19 71.83 50.85 73.25"></polyline>
        <line stroke='#fff'x1="52.18" y1="63.5" x2="47.47" y2="68.23"></line>
        <polyline stroke='#fff'points="50.81 63.13 51.17 64.49 52.59 64.83"></polyline>
        <line stroke='#fff'x1="54.12" y1="68.16" x2="47.49" y2="68.16"></line>
        <polyline stroke='#fff'points="53.41 66.94 52.7 68.15 53.47 69.39"></polyline>
        <line stroke='#fff'x1="47.49" y1="74.45" x2="47.49" y2="61.58"></line>
        <line stroke='#fff'x1="47.49" y1="74.69" x2="47.49" y2="61.58"></line>
        <line stroke='#fff'x1="47.5" y1="73.28" x2="46.26" y2="74.04"></line>
        <line stroke='#fff'x1="46.26" y1="62.19" x2="47.47" y2="62.9"></line>
        <line stroke='#fff'x1="47.47" y1="68.11" x2="42.85" y2="63.5"></line>
        <polyline stroke='#fff'points="42.42 64.8 43.77 64.44 44.11 63.02"></polyline>
        <line stroke='#fff'x1="42.79" y1="72.77" x2="47.5" y2="68.04"></line>
        <polyline stroke='#fff'points="44.15 73.14 43.8 71.78 42.38 71.44"></polyline>
        <line stroke='#fff'x1="40.85" y1="68.11" x2="47.47" y2="68.11"></line>
        <polyline stroke='#fff'points="41.56 69.33 42.27 68.12 41.5 66.88"></polyline>
        <line stroke='#fff'x1="56.34" y1="80.19" x2="57.58" y2="79.42"></line>
        <line stroke='#fff'x1="57.58" y1="91.27" x2="56.37" y2="90.56"></line>
        <line stroke='#fff'x1="56.36" y1="85.36" x2="60.99" y2="89.97"></line>
        <polyline stroke='#fff'points="61.42 88.66 60.06 89.02 59.73 90.44"></polyline>
        <line stroke='#fff'x1="61.05" y1="80.69" x2="56.34" y2="85.43"></line>
        <polyline stroke='#fff'points="59.69 80.32 60.04 81.68 61.46 82.02"></polyline>
        <line stroke='#fff'x1="62.99" y1="85.36" x2="56.36" y2="85.36"></line>
        <polyline stroke='#fff'points="62.28 84.13 61.57 85.34 62.34 86.59"></polyline>
        <line stroke='#fff'x1="56.36" y1="91.64" x2="56.36" y2="78.77"></line>
        <line stroke='#fff'x1="56.36" y1="91.88" x2="56.36" y2="78.77"></line>
        <line stroke='#fff'x1="56.37" y1="90.47" x2="55.13" y2="91.23"></line>
        <line stroke='#fff'x1="55.13" y1="79.38" x2="56.34" y2="80.09"></line>
        <line stroke='#fff'x1="56.35" y1="85.3" x2="51.72" y2="80.69"></line>
        <polyline stroke='#fff'points="51.29 81.99 52.65 81.64 52.98 80.22"></polyline>
        <line stroke='#fff'x1="51.66" y1="89.97" x2="56.37" y2="85.23"></line>
        <polyline stroke='#fff'points="53.02 90.33 52.67 88.97 51.25 88.64"></polyline>
        <line stroke='#fff'x1="49.72" y1="85.3" x2="56.35" y2="85.3"></line>
        <polyline stroke='#fff'points="50.43 86.52 51.14 85.31 50.37 84.07"></polyline>
        <path d="M71.91,62.79c-2.48,1.5-4.72,2.77-6.85,4.2a4.45,4.45,0,0,0,3.36,8,4.51,4.51,0,0,0,3.47-4.36C72,68.15,71.91,65.68,71.91,62.79Z"></path>
        <path d="M59.26,51.74H97.15a15.05,15.05,0,0,0-12.1-14.06,15.63,15.63,0,0,0-7.62.47c-1.76.56-2.5.2-3.26-1.53a15.1,15.1,0,0,0-14.88-9.09A14.81,14.81,0,0,0,52,30c-1.62,1.06-2.55.86-3.63-.78A16.42,16.42,0,0,0,31.51,21.9c-7,1.45-12.22,6.6-13.29,13.52-.53,3.41-1.13,3.14-3.77,3.45-12.16,0-13,12.67-12.95,12.87H39.61"></path>
        <path fill='#f5b952' d="M99,17.47h0A10.77,10.77,0,1,1,84.35,1.93,15.07,15.07,0,1,0,97.29,26.41h0a15,15,0,0,0,3.19-11.48A10.56,10.56,0,0,1,99,17.47Z"></path>
      </g>
    </g>
  </symbol>
  <symbol xmlns="http://www.w3.org/2000/svg" viewBox="0 0 116.8 101.13" fill='#cae3f6' stroke='#fff' id="showers-day">
    <defs></defs>
    <title>showers-day Asset 216colored</title>
    <g id="Layer_2">
      <g id="Layer_1-2">
        <path stroke='#fff' d="M50.29,71c-2.48,1.51-4.72,2.77-6.85,4.2a4.45,4.45,0,0,0,3.37,8,4.52,4.52,0,0,0,3.47-4.36C50.33,76.33,50.29,73.86,50.29,71Z"></path>
        <path stroke='#fff' d="M71.91,71c-2.48,1.51-4.72,2.77-6.85,4.2a4.45,4.45,0,0,0,3.36,8,4.5,4.5,0,0,0,3.47-4.36C72,76.33,71.91,73.86,71.91,71Z"></path>
        <path stroke='#fff' d="M58.29,87.35c-2.48,1.51-4.72,2.78-6.85,4.21a4.44,4.44,0,0,0,3.37,8,4.52,4.52,0,0,0,3.47-4.36C58.33,92.72,58.29,90.24,58.29,87.35Z"></path>
        <path stroke='#fff' d="M59.26,62.32H97.15a15.07,15.07,0,0,0-12.1-14.06,15.87,15.87,0,0,0-7.62.47c-1.76.56-2.5.2-3.26-1.52a15.1,15.1,0,0,0-14.88-9.1A14.82,14.82,0,0,0,52,40.61c-1.62,1.06-2.55.86-3.63-.79a16.43,16.43,0,0,0-16.84-7.33c-7,1.45-12.22,6.59-13.29,13.51-.53,3.41-1.13,3.15-3.77,3.45-12.16,0-13,12.68-12.95,12.87H39.61"></path>
        <path stroke='#fff' d="M88.72,42.66h0a14.49,14.49,0,0,0,0-29h0a14.49,14.49,0,1,0,0,29h0Z"></path>
        <path stroke='#fff' d="M50.29,71c-2.48,1.51-4.72,2.77-6.85,4.2a4.45,4.45,0,0,0,3.37,8,4.52,4.52,0,0,0,3.47-4.36C50.33,76.33,50.29,73.86,50.29,71Z"></path>
        <path stroke='#fff' d="M71.91,71c-2.48,1.51-4.72,2.77-6.85,4.2a4.45,4.45,0,0,0,3.36,8,4.5,4.5,0,0,0,3.47-4.36C72,76.33,71.91,73.86,71.91,71Z"></path>
        <path stroke='#fff' d="M58.29,87.35c-2.48,1.51-4.72,2.78-6.85,4.21a4.44,4.44,0,0,0,3.37,8,4.52,4.52,0,0,0,3.47-4.36C58.33,92.72,58.29,90.24,58.29,87.35Z"></path>
        <path stroke='#fff' d="M59.26,62.32H97.15a15.07,15.07,0,0,0-12.1-14.06,15.87,15.87,0,0,0-7.62.47c-1.76.56-2.5.2-3.26-1.52a15.1,15.1,0,0,0-14.88-9.1A14.82,14.82,0,0,0,52,40.61c-1.62,1.06-2.55.86-3.63-.79a16.43,16.43,0,0,0-16.84-7.33c-7,1.45-12.22,6.59-13.29,13.51-.53,3.41-1.13,3.15-3.77,3.45-12.16,0-13,12.68-12.95,12.87H39.61"></path>
        <line stroke='#fff' x1="69.07" y1="28.05" x2="62.2" y2="28.05"></line>
        <line stroke='#fff' x1="75.11" y1="13.96" x2="70.3" y2="9.05"></line>
        <line stroke='#fff' x1="81.32" y1="9.91" x2="78.66" y2="3.56"></line>
        <line stroke='#fff' x1="70.73" y1="20.26" x2="64.42" y2="17.54"></line>
        <path stroke='#fff' fill='#f5b952' d="M88.72,42.66h0a14.49,14.49,0,0,0,0-29h0a14.49,14.49,0,1,0,0,29h0Z"></path>
        <line stroke='#fff' x1="108.43" y1="28.05" x2="115.3" y2="28.05"></line>
        <line stroke='#fff' x1="88.75" y1="8.38" x2="88.75" y2="1.5"></line>
        <line stroke='#fff' x1="102.97" y1="41.82" x2="107.92" y2="46.59"></line>
        <line stroke='#fff' x1="102.39" y1="13.96" x2="107.2" y2="9.05"></line>
        <line stroke='#fff' x1="106.99" y1="35.59" x2="113.35" y2="38.2"></line>
        <line stroke='#fff' x1="96.18" y1="9.91" x2="98.84" y2="3.56"></line>
        <line stroke='#fff' x1="106.77" y1="20.26" x2="113.08" y2="17.54"></line>
      </g>
    </g>
  </symbol>
  <symbol xmlns="http://www.w3.org/2000/svg" viewBox="0 0 102.12 90.74" fill='#cae3f6' stroke='#fff' id="showers-night">
    <defs></defs>
    <title>showers-nightAsset 215colored</title>
    <g id="Layer_2">
      <g id="Layer_1-2">
        <path d="M50.29,60.59c-2.48,1.51-4.72,2.77-6.85,4.2a4.45,4.45,0,0,0,3.37,8,4.53,4.53,0,0,0,3.47-4.36C50.33,66,50.29,63.48,50.29,60.59Z"></path>
        <path d="M71.91,60.59c-2.48,1.51-4.72,2.77-6.85,4.2a4.45,4.45,0,0,0,3.36,8,4.51,4.51,0,0,0,3.47-4.36C72,66,71.91,63.48,71.91,60.59Z"></path>
        <path d="M58.29,77c-2.48,1.51-4.72,2.78-6.85,4.21a4.44,4.44,0,0,0,3.37,8,4.52,4.52,0,0,0,3.47-4.36C58.33,82.34,58.29,79.86,58.29,77Z"></path>
        <path d="M59.26,51.74H97.15a15.05,15.05,0,0,0-12.1-14.06,15.63,15.63,0,0,0-7.62.47c-1.76.56-2.5.2-3.26-1.53a15.1,15.1,0,0,0-14.88-9.09A14.81,14.81,0,0,0,52,30c-1.62,1.06-2.55.86-3.63-.78A16.42,16.42,0,0,0,31.51,21.9c-7,1.45-12.22,6.6-13.29,13.52-.53,3.41-1.13,3.14-3.77,3.45-12.16,0-13,12.67-12.95,12.87H39.61"></path>
        <path d="M99,17.62h0A10.77,10.77,0,1,1,84.35,2.07,15.08,15.08,0,1,0,97.29,26.55h0a15,15,0,0,0,3.19-11.48A10.81,10.81,0,0,1,99,17.62Z"></path>
        <path d="M50.29,60.59c-2.48,1.51-4.72,2.77-6.85,4.2a4.45,4.45,0,0,0,3.37,8,4.53,4.53,0,0,0,3.47-4.36C50.33,66,50.29,63.48,50.29,60.59Z"></path>
        <path d="M71.91,60.59c-2.48,1.51-4.72,2.77-6.85,4.2a4.45,4.45,0,0,0,3.36,8,4.51,4.51,0,0,0,3.47-4.36C72,66,71.91,63.48,71.91,60.59Z"></path>
        <path d="M58.29,77c-2.48,1.51-4.72,2.78-6.85,4.21a4.44,4.44,0,0,0,3.37,8,4.52,4.52,0,0,0,3.47-4.36C58.33,82.34,58.29,79.86,58.29,77Z"></path>
        <path d="M59.26,51.74H97.15a15.05,15.05,0,0,0-12.1-14.06,15.63,15.63,0,0,0-7.62.47c-1.76.56-2.5.2-3.26-1.53a15.1,15.1,0,0,0-14.88-9.09A14.81,14.81,0,0,0,52,30c-1.62,1.06-2.55.86-3.63-.78A16.42,16.42,0,0,0,31.51,21.9c-7,1.45-12.22,6.6-13.29,13.52-.53,3.41-1.13,3.14-3.77,3.45-12.16,0-13,12.67-12.95,12.87H39.61"></path>
        <path fill='#f5b952' d="M99,17.47h0A10.77,10.77,0,1,1,84.35,1.93,15.07,15.07,0,1,0,97.29,26.41h0a15,15,0,0,0,3.19-11.48A10.56,10.56,0,0,1,99,17.47Z"></path>
      </g>
    </g>
  </symbol>
  <symbol xmlns="http://www.w3.org/2000/svg" viewBox="0 0 98.7 70.44" fill='#cae3f6' stroke='#fff' id="sleet">
    <defs></defs>
    <title>sleetAsset 214colored</title>
    <g id="Layer_2">
      <g id="Layer_1-2">
        <path d="M69.26,31.64H97.15a15.06,15.06,0,0,0-12.1-14.06,15.87,15.87,0,0,0-7.62.47c-1.76.56-2.5.2-3.26-1.52a15.1,15.1,0,0,0-14.88-9.1A14.82,14.82,0,0,0,52,9.93c-1.62,1.06-2.55.86-3.63-.79a16.47,16.47,0,0,0-30.13,6.18c-.53,3.41-1.13,3.15-3.77,3.45-12.16,0-13,12.67-12.95,12.87H29.61"></path>
        <line stroke='#fff' x1="49.29" y1="16.34" x2="49.29" y2="47.25"></line>
        <line stroke='#fff' x1="49.29" y1="15.76" x2="49.29" y2="47.25"></line>
        <line stroke='#fff' x1="49.27" y1="19.16" x2="52.25" y2="17.32"></line>
        <line stroke='#fff' x1="52.25" y1="45.77" x2="49.34" y2="44.07"></line>
        <line stroke='#fff' x1="49.33" y1="31.57" x2="60.43" y2="42.64"></line>
        <polyline stroke='#fff' points="61.48 39.51 58.22 40.37 57.41 43.78"></polyline>
        <line stroke='#fff' x1="60.59" y1="20.36" x2="49.28" y2="31.74"></line>
        <polyline stroke='#fff' points="57.31 19.49 58.16 22.75 61.58 23.56"></polyline>
        <line stroke='#fff' x1="65.24" y1="31.57" x2="49.33" y2="31.57"></line>
        <polyline stroke='#fff' points="63.54 28.64 61.84 31.55 63.68 34.53"></polyline>
        <line stroke='#fff' x1="49.23" y1="46.67" x2="49.23" y2="15.76"></line>
        <line stroke='#fff' x1="49.23" y1="47.25" x2="49.23" y2="15.76"></line>
        <line stroke='#fff' x1="49.26" y1="43.85" x2="46.28" y2="45.69"></line>
        <line stroke='#fff' x1="46.28" y1="17.23" x2="49.19" y2="18.93"></line>
        <line stroke='#fff' x1="49.19" y1="31.43" x2="38.1" y2="20.36"></line>
        <polyline stroke='#fff' points="37.05 23.5 40.31 22.64 41.12 19.23"></polyline>
        <line stroke='#fff' x1="37.94" y1="42.64" x2="49.25" y2="31.27"></line>
        <polyline stroke='#fff' points="41.22 43.52 40.36 40.26 36.95 39.45"></polyline>
        <line stroke='#fff' x1="33.29" y1="31.43" x2="49.19" y2="31.43"></line>
        <polyline stroke='#fff' points="34.99 34.37 36.69 31.46 34.85 28.48"></polyline>
        <path d="M69.26,31.64H97.15a15.06,15.06,0,0,0-12.1-14.06,15.87,15.87,0,0,0-7.62.47c-1.76.56-2.5.2-3.26-1.52a15.1,15.1,0,0,0-14.88-9.1A14.82,14.82,0,0,0,52,9.93c-1.62,1.06-2.55.86-3.63-.79a16.47,16.47,0,0,0-30.13,6.18c-.53,3.41-1.13,3.15-3.77,3.45-12.16,0-13,12.67-12.95,12.87H29.61"></path>
      </g>
    </g>
  </symbol>
  <symbol xmlns="http://www.w3.org/2000/svg" viewBox="0 0 98.7 72.29" fill='#cae3f6' id="snow">
    <defs></defs>
    <title>snow Asset 203colored</title>
    <g id="Layer_2">
      <g id="Layer_1-2">
        <path d="M59.26,31.64H97.15a15.06,15.06,0,0,0-12.1-14.06,15.87,15.87,0,0,0-7.62.47c-1.76.56-2.5.2-3.26-1.52a15.1,15.1,0,0,0-14.88-9.1A14.82,14.82,0,0,0,52,9.93c-1.62,1.06-2.55.86-3.63-.79a16.47,16.47,0,0,0-30.13,6.18c-.53,3.41-1.13,3.15-3.77,3.45-12.16,0-13,12.67-12.95,12.87H39.61"></path>
        <line stroke='#fff' x1="47.46" y1="42.9" x2="48.71" y2="42.13"></line>
        <line stroke='#fff' x1="48.71" y1="53.98" x2="47.49" y2="53.28"></line>
        <line stroke='#fff' x1="47.49" y1="48.07" x2="52.11" y2="52.68"></line>
        <polyline stroke='#fff' points="52.55 51.38 51.19 51.73 50.85 53.15"></polyline>
        <line stroke='#fff' x1="52.18" y1="43.4" x2="47.47" y2="48.14"></line>
        <polyline stroke='#fff' points="50.81 43.04 51.17 44.4 52.59 44.73"></polyline>
        <line stroke='#fff' x1="54.12" y1="48.07" x2="47.49" y2="48.07"></line>
        <polyline stroke='#fff' points="53.41 46.85 52.7 48.06 53.47 49.3"></polyline>
        <line stroke='#fff' x1="47.49" y1="54.36" x2="47.49" y2="41.48"></line>
        <line stroke='#fff' x1="47.49" y1="54.6" x2="47.49" y2="41.48"></line>
        <line stroke='#fff' x1="47.5" y1="53.18" x2="46.26" y2="53.95"></line>
        <line stroke='#fff' x1="46.26" y1="42.1" x2="47.47" y2="42.81"></line>
        <line stroke='#fff' x1="47.47" y1="48.01" x2="42.85" y2="43.4"></line>
        <polyline stroke='#fff' points="42.42 44.71 43.77 44.35 44.11 42.93"></polyline>
        <line stroke='#fff' x1="42.79" y1="52.68" x2="47.5" y2="47.94"></line>
        <polyline stroke='#fff' points="44.15 53.04 43.8 51.69 42.38 51.35"></polyline>
        <line stroke='#fff' x1="40.85" y1="48.01" x2="47.47" y2="48.01"></line>
        <polyline stroke='#fff' points="41.56 49.23 42.27 48.02 41.5 46.78"></polyline>
        <line stroke='#fff' x1="71.78" y1="42.9" x2="73.03" y2="42.13"></line>
        <line stroke='#fff' x1="73.03" y1="53.98" x2="71.81" y2="53.28"></line>
        <line stroke='#fff' x1="71.81" y1="48.07" x2="76.43" y2="52.68"></line>
        <polyline stroke='#fff' points="76.87 51.38 75.51 51.73 75.17 53.15"></polyline>
        <line stroke='#fff' x1="76.5" y1="43.4" x2="71.79" y2="48.14"></line>
        <polyline stroke='#fff' points="75.13 43.04 75.49 44.4 76.91 44.73"></polyline>
        <line stroke='#fff' x1="78.44" y1="48.07" x2="71.81" y2="48.07"></line>
        <polyline stroke='#fff' points="77.73 46.85 77.02 48.06 77.79 49.3"></polyline>
        <line stroke='#fff' x1="71.81" y1="54.36" x2="71.81" y2="41.48"></line>
        <line stroke='#fff' x1="71.81" y1="54.6" x2="71.81" y2="41.48"></line>
        <line stroke='#fff' x1="71.82" y1="53.18" x2="70.58" y2="53.95"></line>
        <line stroke='#fff' x1="70.58" y1="42.1" x2="71.79" y2="42.81"></line>
        <line stroke='#fff' x1="71.79" y1="48.01" x2="67.17" y2="43.4"></line>
        <polyline stroke='#fff' points="66.74 44.71 68.09 44.35 68.43 42.93"></polyline>
        <line stroke='#fff' x1="67.11" y1="52.68" x2="71.82" y2="47.94"></line>
        <polyline stroke='#fff' points="68.47 53.04 68.11 51.69 66.69 51.35"></polyline>
        <line stroke='#fff' x1="65.17" y1="48.01" x2="71.79" y2="48.01"></line>
        <polyline stroke='#fff' points="65.88 49.23 66.58 48.02 65.82 46.78"></polyline>
        <line stroke='#fff' x1="57.34" y1="60.09" x2="58.58" y2="59.32"></line>
        <line stroke='#fff' x1="58.58" y1="71.18" x2="57.37" y2="70.47"></line>
        <line stroke='#fff' x1="57.36" y1="65.26" x2="61.99" y2="69.87"></line>
        <polyline stroke='#fff' points="62.42 68.57 61.06 68.92 60.73 70.34"></polyline>
        <line stroke='#fff' x1="62.05" y1="60.59" x2="57.34" y2="65.33"></line>
        <polyline stroke='#fff' points="60.69 60.23 61.04 61.59 62.46 61.92"></polyline>
        <line stroke='#fff' x1="63.99" y1="65.26" x2="57.36" y2="65.26"></line>
        <polyline stroke='#fff' points="63.28 64.04 62.57 65.25 63.34 66.49"></polyline>
        <line stroke='#fff' x1="57.36" y1="71.55" x2="57.36" y2="58.67"></line>
        <line stroke='#fff' x1="57.36" y1="71.79" x2="57.36" y2="58.67"></line>
        <line stroke='#fff' x1="57.37" y1="70.37" x2="56.13" y2="71.14"></line>
        <line stroke='#fff' x1="56.13" y1="59.29" x2="57.34" y2="60"></line>
        <line stroke='#fff' x1="57.35" y1="65.2" x2="52.72" y2="60.59"></line>
        <polyline stroke='#fff' points="52.29 61.9 53.65 61.54 53.98 60.12"></polyline>
        <line stroke='#fff' x1="52.66" y1="69.87" x2="57.37" y2="65.13"></line>
        <polyline stroke='#fff' points="54.02 70.24 53.67 68.88 52.25 68.54"></polyline>
        <line stroke='#fff' x1="50.72" y1="65.2" x2="57.35" y2="65.2"></line>
        <polyline stroke='#fff' points="51.43 66.43 52.14 65.21 51.37 63.97"></polyline>
        <path d="M59.26,31.64H97.15a15.06,15.06,0,0,0-12.1-14.06,15.87,15.87,0,0,0-7.62.47c-1.76.56-2.5.2-3.26-1.52a15.1,15.1,0,0,0-14.88-9.1A14.82,14.82,0,0,0,52,9.93c-1.62,1.06-2.55.86-3.63-.79a16.47,16.47,0,0,0-30.13,6.18c-.53,3.41-1.13,3.15-3.77,3.45-12.16,0-13,12.67-12.95,12.87H39.61"></path>
      </g>
    </g>
  </symbol>
  <symbol xmlns="http://www.w3.org/2000/svg" viewBox="0 0 116.8 102.82" fill='#cae3f6' id="snow-showers-day">
    <defs></defs>
    <title>snow-showers-day Asset 202colored</title>
    <g id="Layer_2">
      <g id="Layer_1-2">
        <path stroke='#fff' d="M59.26,62.32H97.15a15.07,15.07,0,0,0-12.1-14.06,15.87,15.87,0,0,0-7.62.47c-1.76.56-2.5.2-3.26-1.52a15.1,15.1,0,0,0-14.88-9.1A14.82,14.82,0,0,0,52,40.61c-1.62,1.06-2.55.86-3.63-.79a16.43,16.43,0,0,0-16.84-7.33c-7,1.45-12.22,6.59-13.29,13.51-.53,3.41-1.13,3.15-3.77,3.45-12.16,0-13,12.68-12.95,12.87H39.61"></path>
        <path stroke='#fff' d="M88.72,42.54h0a14.49,14.49,0,1,0,0-29h0a14.49,14.49,0,1,0,0,29h0Z"></path>
        <line stroke='#fff' x1="47.46" y1="73.43" x2="48.71" y2="72.66"></line>
        <line stroke='#fff' x1="48.71" y1="84.51" x2="47.49" y2="83.81"></line>
        <line stroke='#fff' x1="47.49" y1="78.6" x2="52.11" y2="83.21"></line>
        <polyline stroke='#fff' points="52.55 81.91 51.19 82.26 50.85 83.68"></polyline>
        <line stroke='#fff' x1="52.18" y1="73.93" x2="47.47" y2="78.67"></line>
        <polyline stroke='#fff' points="50.81 73.57 51.17 74.93 52.59 75.26"></polyline>
        <line stroke='#fff' x1="54.12" y1="78.6" x2="47.49" y2="78.6"></line>
        <polyline stroke='#fff' points="53.41 77.38 52.7 78.59 53.47 79.83"></polyline>
        <line stroke='#fff' x1="47.49" y1="84.89" x2="47.49" y2="72.01"></line>
        <line stroke='#fff' x1="47.49" y1="85.13" x2="47.49" y2="72.01"></line>
        <line stroke='#fff' x1="47.5" y1="83.71" x2="46.26" y2="84.48"></line>
        <line stroke='#fff' x1="46.26" y1="72.63" x2="47.47" y2="73.34"></line>
        <line stroke='#fff' x1="47.47" y1="78.54" x2="42.85" y2="73.93"></line>
        <polyline stroke='#fff' points="42.42 75.24 43.77 74.88 44.11 73.46"></polyline>
        <line stroke='#fff' x1="42.79" y1="83.21" x2="47.5" y2="78.47"></line>
        <polyline stroke='#fff' points="44.15 83.58 43.8 82.22 42.38 81.88"></polyline>
        <line stroke='#fff' x1="40.85" y1="78.54" x2="47.47" y2="78.54"></line>
        <polyline stroke='#fff' points="41.56 79.77 42.27 78.55 41.5 77.31"></polyline>
        <line stroke='#fff' x1="71.78" y1="73.43" x2="73.03" y2="72.66"></line>
        <line stroke='#fff' x1="73.03" y1="84.51" x2="71.81" y2="83.81"></line>
        <line stroke='#fff' x1="71.81" y1="78.6" x2="76.43" y2="83.21"></line>
        <polyline stroke='#fff' points="76.87 81.91 75.51 82.26 75.17 83.68"></polyline>
        <line stroke='#fff' x1="76.5" y1="73.93" x2="71.79" y2="78.67"></line>
        <polyline stroke='#fff' points="75.13 73.57 75.49 74.93 76.91 75.26"></polyline>
        <line stroke='#fff' x1="78.44" y1="78.6" x2="71.81" y2="78.6"></line>
        <polyline stroke='#fff' points="77.73 77.38 77.02 78.59 77.79 79.83"></polyline>
        <line stroke='#fff' x1="71.81" y1="84.89" x2="71.81" y2="72.01"></line>
        <line stroke='#fff' x1="71.81" y1="85.13" x2="71.81" y2="72.01"></line>
        <line stroke='#fff' x1="71.82" y1="83.71" x2="70.58" y2="84.48"></line>
        <line stroke='#fff' x1="70.58" y1="72.63" x2="71.79" y2="73.34"></line>
        <line stroke='#fff' x1="71.79" y1="78.54" x2="67.17" y2="73.93"></line>
        <polyline stroke='#fff' points="66.74 75.24 68.09 74.88 68.43 73.46"></polyline>
        <line stroke='#fff' x1="67.11" y1="83.21" x2="71.82" y2="78.47"></line>
        <polyline stroke='#fff' points="68.47 83.58 68.11 82.22 66.69 81.88"></polyline>
        <line stroke='#fff' x1="65.17" y1="78.54" x2="71.79" y2="78.54"></line>
        <polyline stroke='#fff' points="65.88 79.77 66.58 78.55 65.82 77.31"></polyline>
        <line stroke='#fff' x1="57.34" y1="90.62" x2="58.58" y2="89.86"></line>
        <line stroke='#fff' x1="58.58" y1="101.71" x2="57.37" y2="101"></line>
        <line stroke='#fff' x1="57.36" y1="95.79" x2="61.99" y2="100.4"></line>
        <polyline stroke='#fff' points="62.42 99.1 61.06 99.45 60.73 100.87"></polyline>
        <line stroke='#fff' x1="62.05" y1="91.12" x2="57.34" y2="95.86"></line>
        <polyline stroke='#fff' points="60.69 90.76 61.04 92.12 62.46 92.45"></polyline>
        <line stroke='#fff' x1="63.99" y1="95.79" x2="57.36" y2="95.79"></line>
        <polyline stroke='#fff' points="63.28 94.57 62.57 95.78 63.34 97.02"></polyline>
        <line stroke='#fff' x1="57.36" y1="102.08" x2="57.36" y2="89.21"></line>
        <line stroke='#fff' x1="57.36" y1="102.32" x2="57.36" y2="89.21"></line>
        <line stroke='#fff' x1="57.37" y1="100.9" x2="56.13" y2="101.67"></line>
        <line stroke='#fff' x1="56.13" y1="89.82" x2="57.34" y2="90.53"></line>
        <line stroke='#fff' x1="57.35" y1="95.73" x2="52.72" y2="91.12"></line>
        <polyline stroke='#fff' points="52.29 92.43 53.65 92.07 53.98 90.65"></polyline>
        <line stroke='#fff' x1="52.66" y1="100.4" x2="57.37" y2="95.66"></line>
        <polyline stroke='#fff' points="54.02 100.77 53.67 99.41 52.25 99.07"></polyline>
        <line stroke='#fff' x1="50.72" y1="95.73" x2="57.35" y2="95.73"></line>
        <polyline stroke='#fff' points="51.43 96.96 52.14 95.74 51.37 94.5"></polyline>
        <path stroke='#fff' d="M59.26,62.32H97.15a15.07,15.07,0,0,0-12.1-14.06,15.87,15.87,0,0,0-7.62.47c-1.76.56-2.5.2-3.26-1.52a15.1,15.1,0,0,0-14.88-9.1A14.82,14.82,0,0,0,52,40.61c-1.62,1.06-2.55.86-3.63-.79a16.43,16.43,0,0,0-16.84-7.33c-7,1.45-12.22,6.59-13.29,13.51-.53,3.41-1.13,3.15-3.77,3.45-12.16,0-13,12.68-12.95,12.87H39.61"></path>
        <line stroke='#fff' x1="69.07" y1="28.05" x2="62.2" y2="28.05"></line>
        <line stroke='#fff' x1="75.11" y1="13.96" x2="70.3" y2="9.05"></line>
        <line stroke='#fff' x1="81.32" y1="9.91" x2="78.66" y2="3.56"></line>
        <line stroke='#fff' x1="70.73" y1="20.26" x2="64.42" y2="17.54"></line>
        <path stroke='#fff' fill='#f5b952' d="M88.72,42.66h0a14.49,14.49,0,0,0,0-29h0a14.49,14.49,0,1,0,0,29h0Z"></path>
        <line stroke='#fff' x1="108.43" y1="28.05" x2="115.3" y2="28.05"></line>
        <line stroke='#fff' x1="88.75" y1="8.38" x2="88.75" y2="1.5"></line>
        <line stroke='#fff' x1="102.97" y1="41.82" x2="107.92" y2="46.59"></line>
        <line stroke='#fff' x1="102.39" y1="13.96" x2="107.2" y2="9.05"></line>
        <line stroke='#fff' x1="106.99" y1="35.59" x2="113.35" y2="38.2"></line>
        <line stroke='#fff' x1="96.18" y1="9.91" x2="98.84" y2="3.56"></line>
        <line stroke='#fff' x1="106.77" y1="20.26" x2="113.08" y2="17.54"></line>
      </g>
    </g>
  </symbol>
  <symbol xmlns="http://www.w3.org/2000/svg" viewBox="0 0 102.12 92.89" fill='#cae3f6' id="snow-showers-night">
    <defs></defs>
    <title>snow-showers-nightAsset 201colored</title>
    <g id="Layer_2">
      <g id="Layer_1-2">
        <path stroke='#fff' d="M59.26,51.74H97.15a15.05,15.05,0,0,0-12.1-14.06,15.63,15.63,0,0,0-7.62.47c-1.76.56-2.5.2-3.26-1.53a15.1,15.1,0,0,0-14.88-9.09A14.81,14.81,0,0,0,52,30c-1.62,1.06-2.55.86-3.63-.78A16.42,16.42,0,0,0,31.51,21.9c-7,1.45-12.22,6.6-13.29,13.52-.53,3.41-1.13,3.14-3.77,3.45-12.16,0-13,12.67-12.95,12.87H39.61"></path>
        <path stroke='#fff' d="M99,17.92h0A10.77,10.77,0,1,1,82.17,4.41a10.44,10.44,0,0,1,2.18-2A15.07,15.07,0,1,0,97.29,26.85h0a15.05,15.05,0,0,0,3.19-11.49A10.81,10.81,0,0,1,99,17.92Z"></path>
        <line stroke='#fff' x1="47.46" y1="63.5" x2="48.71" y2="62.73"></line>
        <line stroke='#fff' x1="48.71" y1="74.58" x2="47.49" y2="73.87"></line>
        <line stroke='#fff' x1="47.49" y1="68.67" x2="52.11" y2="73.28"></line>
        <polyline stroke='#fff' points="52.55 71.97 51.19 72.33 50.85 73.75"></polyline>
        <line stroke='#fff' x1="52.18" y1="64" x2="47.47" y2="68.74"></line>
        <polyline stroke='#fff' points="50.81 63.63 51.17 64.99 52.59 65.33"></polyline>
        <line stroke='#fff' x1="54.12" y1="68.67" x2="47.49" y2="68.67"></line>
        <polyline stroke='#fff' points="53.41 67.44 52.7 68.66 53.47 69.9"></polyline>
        <line stroke='#fff' x1="47.49" y1="74.95" x2="47.49" y2="62.08"></line>
        <line stroke='#fff' x1="47.49" y1="75.2" x2="47.49" y2="62.08"></line>
        <line stroke='#fff' x1="47.5" y1="73.78" x2="46.26" y2="74.55"></line>
        <line stroke='#fff' x1="46.26" y1="62.69" x2="47.47" y2="63.4"></line>
        <line stroke='#fff' x1="47.47" y1="68.61" x2="42.85" y2="64"></line>
        <polyline stroke='#fff' points="42.42 65.3 43.77 64.95 44.11 63.53"></polyline>
        <line stroke='#fff' x1="42.79" y1="73.28" x2="47.5" y2="68.54"></line>
        <polyline stroke='#fff' points="44.15 73.64 43.8 72.28 42.38 71.95"></polyline>
        <line stroke='#fff' x1="40.85" y1="68.61" x2="47.47" y2="68.61"></line>
        <polyline stroke='#fff' points="41.56 69.83 42.27 68.62 41.5 67.38"></polyline>
        <line stroke='#fff' x1="71.78" y1="63.5" x2="73.03" y2="62.73"></line>
        <line stroke='#fff' x1="73.03" y1="74.58" x2="71.81" y2="73.87"></line>
        <line stroke='#fff' x1="71.81" y1="68.67" x2="76.43" y2="73.28"></line>
        <polyline stroke='#fff' points="76.87 71.97 75.51 72.33 75.17 73.75"></polyline>
        <line stroke='#fff' x1="76.5" y1="64" x2="71.79" y2="68.74"></line>
        <polyline stroke='#fff' points="75.13 63.63 75.49 64.99 76.91 65.33"></polyline>
        <line stroke='#fff' x1="78.44" y1="68.67" x2="71.81" y2="68.67"></line>
        <polyline stroke='#fff' points="77.73 67.44 77.02 68.66 77.79 69.9"></polyline>
        <line stroke='#fff' x1="71.81" y1="74.95" x2="71.81" y2="62.08"></line>
        <line stroke='#fff' x1="71.81" y1="75.2" x2="71.81" y2="62.08"></line>
        <line stroke='#fff' x1="71.82" y1="73.78" x2="70.58" y2="74.55"></line>
        <line stroke='#fff' x1="70.58" y1="62.69" x2="71.79" y2="63.4"></line>
        <line stroke='#fff' x1="71.79" y1="68.61" x2="67.17" y2="64"></line>
        <polyline stroke='#fff' points="66.74 65.3 68.09 64.95 68.43 63.53"></polyline>
        <line stroke='#fff' x1="67.11" y1="73.28" x2="71.82" y2="68.54"></line>
        <polyline stroke='#fff' points="68.47 73.64 68.11 72.28 66.69 71.95"></polyline>
        <line stroke='#fff' x1="65.17" y1="68.61" x2="71.79" y2="68.61"></line>
        <polyline stroke='#fff' points="65.88 69.83 66.58 68.62 65.82 67.38"></polyline>
        <line stroke='#fff' x1="57.34" y1="80.69" x2="58.58" y2="79.92"></line>
        <line stroke='#fff' x1="58.58" y1="91.77" x2="57.37" y2="91.06"></line>
        <line stroke='#fff' x1="57.36" y1="85.86" x2="61.99" y2="90.47"></line>
        <polyline stroke='#fff' points="62.42 89.16 61.06 89.52 60.73 90.94"></polyline>
        <line stroke='#fff' x1="62.05" y1="81.19" x2="57.34" y2="85.93"></line>
        <polyline stroke='#fff' points="60.69 80.83 61.04 82.18 62.46 82.52"></polyline>
        <line stroke='#fff' x1="63.99" y1="85.86" x2="57.36" y2="85.86"></line>
        <polyline stroke='#fff' points="63.28 84.64 62.57 85.85 63.34 87.09"></polyline>
        <line stroke='#fff' x1="57.36" y1="92.14" x2="57.36" y2="79.27"></line>
        <line stroke='#fff' x1="57.36" y1="92.39" x2="57.36" y2="79.27"></line>
        <line stroke='#fff' x1="57.37" y1="90.97" x2="56.13" y2="91.74"></line>
        <line stroke='#fff' x1="56.13" y1="79.89" x2="57.34" y2="80.59"></line>
        <line stroke='#fff' x1="57.35" y1="85.8" x2="52.72" y2="81.19"></line>
        <polyline stroke='#fff' points="52.29 82.49 53.65 82.14 53.98 80.72"></polyline>
        <line stroke='#fff' x1="52.66" y1="90.47" x2="57.37" y2="85.73"></line>
        <polyline stroke='#fff' points="54.02 90.83 53.67 89.47 52.25 89.14"></polyline>
        <line stroke='#fff' x1="50.72" y1="85.8" x2="57.35" y2="85.8"></line>
        <polyline stroke='#fff' points="51.43 87.02 52.14 85.81 51.37 84.57"></polyline>
        <path d="M59.26,51.74H97.15a15.05,15.05,0,0,0-12.1-14.06,15.63,15.63,0,0,0-7.62.47c-1.76.56-2.5.2-3.26-1.53a15.1,15.1,0,0,0-14.88-9.09A14.81,14.81,0,0,0,52,30c-1.62,1.06-2.55.86-3.63-.78A16.42,16.42,0,0,0,31.51,21.9c-7,1.45-12.22,6.6-13.29,13.52-.53,3.41-1.13,3.14-3.77,3.45-12.16,0-13,12.67-12.95,12.87H39.61"></path>
        <path fill='#f5b952' d="M99,17.47h0A10.77,10.77,0,1,1,84.35,1.93,15.07,15.07,0,1,0,97.29,26.41h0a15,15,0,0,0,3.19-11.48A10.56,10.56,0,0,1,99,17.47Z"></path>
      </g>
    </g>
  </symbol>
  <symbol xmlns="http://www.w3.org/2000/svg" viewBox="0 0 98.7 70.44" fill='#cae3f6' stroke='#fff' id="thunder">
    <defs></defs>
    <title>thunder Asset 208colored</title>
    <g id="Layer_2">
      <g id="Layer_1-2">
        <path d="M61.26,31.64H97.15a15.06,15.06,0,0,0-12.1-14.06,15.87,15.87,0,0,0-7.62.47c-1.76.56-2.5.2-3.26-1.52a15.1,15.1,0,0,0-14.88-9.1A14.82,14.82,0,0,0,52,9.93c-1.62,1.06-2.55.86-3.63-.79a16.47,16.47,0,0,0-30.13,6.18c-.53,3.41-1.13,3.15-3.77,3.45-12.16,0-13,12.67-12.95,12.87H36.61"></path>
        <path d="M61.26,31.64H97.15a15.06,15.06,0,0,0-12.1-14.06,15.87,15.87,0,0,0-7.62.47c-1.76.56-2.5.2-3.26-1.52a15.1,15.1,0,0,0-14.88-9.1A14.82,14.82,0,0,0,52,9.93c-1.62,1.06-2.55.86-3.63-.79a16.47,16.47,0,0,0-30.13,6.18c-.53,3.41-1.13,3.15-3.77,3.45-12.16,0-13,12.67-12.95,12.87H36.61"></path>
        <polygon fill='#fff' points="56.48 20.29 44.71 32.99 43.46 30.3 55.58 30.91 57.98 31.03 56.34 32.64 41.58 47.07 54.82 31.24 55.58 32.97 43.46 33.58 40.04 33.75 42.2 30.89 52.65 17.07 56.48 20.29"></polygon>
      </g>
    </g>
  </symbol>
  <symbol xmlns="http://www.w3.org/2000/svg" viewBox="0 0 98.7 70.65" fill='#cae3f6' stroke='#fff' id="thunder-rain">
    <defs></defs>
    <title>thunder-rainAsset 207colored</title>
    <g id="Layer_2">
      <g id="Layer_1-2">
        <path d="M66.91,40.49c-2.48,1.51-4.72,2.78-6.85,4.21a4.44,4.44,0,0,0,3.36,8,4.5,4.5,0,0,0,3.47-4.36C67,45.86,66.91,43.38,66.91,40.49Z"></path>
        <path d="M53.29,56.88c-2.48,1.5-4.72,2.77-6.85,4.2a4.44,4.44,0,0,0,3.37,8,4.52,4.52,0,0,0,3.47-4.35C53.33,62.24,53.29,59.77,53.29,56.88Z"></path>
        <path d="M59.26,31.64H97.15a15.06,15.06,0,0,0-12.1-14.06,15.87,15.87,0,0,0-7.62.47c-1.76.56-2.5.2-3.26-1.52a15.1,15.1,0,0,0-14.88-9.1A14.82,14.82,0,0,0,52,9.93c-1.62,1.06-2.55.86-3.63-.79a16.47,16.47,0,0,0-30.13,6.18c-.53,3.41-1.13,3.15-3.77,3.45-12.16,0-13,12.67-12.95,12.87H39.61"></path>
        <path d="M66.91,40.49c-2.48,1.51-4.72,2.78-6.85,4.21a4.44,4.44,0,0,0,3.36,8,4.5,4.5,0,0,0,3.47-4.36C67,45.86,66.91,43.38,66.91,40.49Z"></path>
        <path d="M53.29,56.88c-2.48,1.5-4.72,2.77-6.85,4.2a4.44,4.44,0,0,0,3.37,8,4.52,4.52,0,0,0,3.47-4.35C53.33,62.24,53.29,59.77,53.29,56.88Z"></path>
        <path d="M59.26,31.64H97.15a15.06,15.06,0,0,0-12.1-14.06,15.87,15.87,0,0,0-7.62.47c-1.76.56-2.5.2-3.26-1.52a15.1,15.1,0,0,0-14.88-9.1A14.82,14.82,0,0,0,52,9.93c-1.62,1.06-2.55.86-3.63-.79a16.47,16.47,0,0,0-30.13,6.18c-.53,3.41-1.13,3.15-3.77,3.45-12.16,0-13,12.67-12.95,12.87H39.61"></path>
        <polygon fill='#fff' points="86.46 40.8 74.69 53.5 73.44 50.81 85.56 51.42 87.96 51.54 86.31 53.15 71.56 67.58 84.8 51.75 85.56 53.48 73.44 54.09 70.02 54.26 72.18 51.4 82.63 37.59 86.46 40.8"></polygon>
      </g>
    </g>
  </symbol>
  <symbol xmlns="http://www.w3.org/2000/svg" viewBox="0 0 116.8 101.94" fill='#cae3f6' stroke='#fff' id="thunder-showers-day">
    <defs></defs>
    <title>thunder-showers-dayAsset 206colored</title>
    <g id="Layer_2">
      <g id="Layer_1-2">
        <path d="M66.91,71.78c-2.48,1.51-4.72,2.78-6.85,4.21a4.44,4.44,0,0,0,3.36,8,4.49,4.49,0,0,0,3.47-4.35C67,77.15,66.91,74.68,66.91,71.78Z"></path>
        <path d="M53.29,88.17c-2.48,1.51-4.72,2.77-6.85,4.2a4.45,4.45,0,0,0,3.37,8A4.53,4.53,0,0,0,53.28,96C53.33,93.53,53.29,91.06,53.29,88.17Z"></path>
        <path d="M59.26,62.32H97.15a15.07,15.07,0,0,0-12.1-14.06,15.87,15.87,0,0,0-7.62.47c-1.76.56-2.5.2-3.26-1.52a15.1,15.1,0,0,0-14.88-9.1A14.82,14.82,0,0,0,52,40.61c-1.62,1.06-2.55.86-3.63-.79a16.43,16.43,0,0,0-16.84-7.33c-7,1.45-12.22,6.59-13.29,13.51-.53,3.41-1.13,3.15-3.77,3.45-12.16,0-13,12.68-12.95,12.87H39.61"></path>
        <path d="M88.72,41.46h0a14.49,14.49,0,0,0,0-29h0a14.49,14.49,0,1,0,0,29h0Z"></path>
        <path d="M59.26,62.32H97.15a15.07,15.07,0,0,0-12.1-14.06,15.87,15.87,0,0,0-7.62.47c-1.76.56-2.5.2-3.26-1.52a15.1,15.1,0,0,0-14.88-9.1A14.82,14.82,0,0,0,52,40.61c-1.62,1.06-2.55.86-3.63-.79a16.43,16.43,0,0,0-16.84-7.33c-7,1.45-12.22,6.59-13.29,13.51-.53,3.41-1.13,3.15-3.77,3.45-12.16,0-13,12.68-12.95,12.87H39.61"></path>
        <line x1="69.07" y1="28.05" x2="62.2" y2="28.05"></line>
        <line x1="75.11" y1="13.96" x2="70.3" y2="9.05"></line>
        <line x1="81.32" y1="9.91" x2="78.66" y2="3.56"></line>
        <line x1="70.73" y1="20.26" x2="64.42" y2="17.54"></line>
        <path fill='#f5b952' stroke='#fff' d="M88.72,42.66h0a14.49,14.49,0,0,0,0-29h0a14.49,14.49,0,1,0,0,29h0Z"></path>
        <line x1="108.43" y1="28.05" x2="115.3" y2="28.05"></line>
        <line x1="88.75" y1="8.38" x2="88.75" y2="1.5"></line>
        <line x1="102.97" y1="41.82" x2="107.92" y2="46.59"></line>
        <line x1="102.39" y1="13.96" x2="107.2" y2="9.05"></line>
        <line x1="106.99" y1="35.59" x2="113.35" y2="38.2"></line>
        <line x1="96.18" y1="9.91" x2="98.84" y2="3.56"></line>
        <line x1="106.77" y1="20.26" x2="113.08" y2="17.54"></line>
        <path d="M66.91,71.78c-2.48,1.51-4.72,2.78-6.85,4.21a4.44,4.44,0,0,0,3.36,8,4.49,4.49,0,0,0,3.47-4.35C67,77.15,66.91,74.68,66.91,71.78Z"></path>
        <path d="M53.29,88.17c-2.48,1.51-4.72,2.77-6.85,4.2a4.45,4.45,0,0,0,3.37,8A4.53,4.53,0,0,0,53.28,96C53.33,93.53,53.29,91.06,53.29,88.17Z"></path>
        <polygon fill='#fff' points="86.46 72.09 74.69 84.79 73.44 82.11 85.56 82.71 87.96 82.83 86.31 84.44 71.56 98.87 84.8 83.04 85.56 84.77 73.44 85.38 70.02 85.55 72.18 82.69 82.63 68.88 86.46 72.09"></polygon>
      </g>
    </g>
  </symbol>
  <symbol xmlns="http://www.w3.org/2000/svg" viewBox="0 0 102.12 92.88" fill='#cae3f6' stroke='#fff' id="thunder-showers-night">
    <defs></defs>
    <title>thunder-showers-nightAsset 205colored</title>
    <g id="Layer_2">
      <g id="Layer_1-2">
        <path d="M66.91,62.72c-2.48,1.51-4.72,2.78-6.85,4.21a4.44,4.44,0,0,0,3.36,8,4.5,4.5,0,0,0,3.47-4.36C67,68.09,66.91,65.61,66.91,62.72Z"></path>
        <path d="M53.29,79.11c-2.48,1.5-4.72,2.77-6.85,4.2a4.45,4.45,0,0,0,3.37,8A4.54,4.54,0,0,0,53.28,87C53.33,84.47,53.29,82,53.29,79.11Z"></path>
        <path d="M59.26,51.74H97.15a15.05,15.05,0,0,0-12.1-14.06,15.63,15.63,0,0,0-7.62.47c-1.76.56-2.5.2-3.26-1.53a15.1,15.1,0,0,0-14.88-9.09A14.81,14.81,0,0,0,52,30c-1.62,1.06-2.55.86-3.63-.78A16.42,16.42,0,0,0,31.51,21.9c-7,1.45-12.22,6.6-13.29,13.52-.53,3.41-1.13,3.14-3.77,3.45-12.16,0-13,12.67-12.95,12.87H39.61"></path>
        <path  d="M99,16.68h0A10.77,10.77,0,1,1,84.35,1.14,15.08,15.08,0,1,0,97.29,25.62h0a15,15,0,0,0,3.19-11.48A10.56,10.56,0,0,1,99,16.68Z"></path>
        <path d="M59.26,51.74H97.15a15.05,15.05,0,0,0-12.1-14.06,15.63,15.63,0,0,0-7.62.47c-1.76.56-2.5.2-3.26-1.53a15.1,15.1,0,0,0-14.88-9.09A14.81,14.81,0,0,0,52,30c-1.62,1.06-2.55.86-3.63-.78A16.42,16.42,0,0,0,31.51,21.9c-7,1.45-12.22,6.6-13.29,13.52-.53,3.41-1.13,3.14-3.77,3.45-12.16,0-13,12.67-12.95,12.87H39.61"></path>
        <path fill='#f5b952' d="M99,17.47h0A10.77,10.77,0,1,1,84.35,1.93,15.07,15.07,0,1,0,97.29,26.41h0a15,15,0,0,0,3.19-11.48A10.56,10.56,0,0,1,99,17.47Z"></path>
        <path d="M66.91,62.72c-2.48,1.51-4.72,2.78-6.85,4.21a4.44,4.44,0,0,0,3.36,8,4.5,4.5,0,0,0,3.47-4.36C67,68.09,66.91,65.61,66.91,62.72Z"></path>
        <path d="M53.29,79.11c-2.48,1.5-4.72,2.77-6.85,4.2a4.45,4.45,0,0,0,3.37,8A4.54,4.54,0,0,0,53.28,87C53.33,84.47,53.29,82,53.29,79.11Z"></path>
        <polygon fill='#fff' points="86.46 63.03 74.69 75.73 73.44 73.05 85.56 73.65 87.96 73.77 86.31 75.38 71.56 89.81 84.8 73.98 85.56 75.71 73.44 76.32 70.02 76.49 72.18 73.63 82.63 59.82 86.46 63.03"></polygon>
      </g>
    </g>
  </symbol>
  <symbol xmlns="http://www.w3.org/2000/svg" fill='#cae3f6'  viewBox="0 0 98.7 70.44" id="wind">
    <defs></defs>
    <title>windAsset 210colored</title>
    <g id="Layer_2">
      <g id="Layer_1-2">
        <path stroke='#fff' d="M67.26,31.64H97.15a15.06,15.06,0,0,0-12.1-14.06,15.87,15.87,0,0,0-7.62.47c-1.76.56-2.5.2-3.26-1.52a15.1,15.1,0,0,0-14.88-9.1A14.82,14.82,0,0,0,52,9.93c-1.62,1.06-2.55.86-3.63-.79a16.47,16.47,0,0,0-30.13,6.18c-.53,3.41-1.13,3.15-3.77,3.45-12.16,0-13,12.67-12.95,12.87H32.61"></path>
        <line stroke='#fff' x1="47.63" y1="24.46" x2="28.53" y2="48.11"></line>
        <line stroke='#fff' x1="62.8" y1="24.46" x2="43.7" y2="48.11"></line>
        <polyline stroke='#fff' points="42.22 39.48 43.33 48.45 51.81 46.9"></polyline>
        <path stroke='#fff' d="M67.26,31.64H97.15a15.06,15.06,0,0,0-12.1-14.06,15.87,15.87,0,0,0-7.62.47c-1.76.56-2.5.2-3.26-1.52a15.1,15.1,0,0,0-14.88-9.1A14.82,14.82,0,0,0,52,9.93c-1.62,1.06-2.55.86-3.63-.79a16.47,16.47,0,0,0-30.13,6.18c-.53,3.41-1.13,3.15-3.77,3.45-12.16,0-13,12.67-12.95,12.87H32.61"></path>
      </g>
    </g>
  </symbol>
  <symbol xmlns="http://www.w3.org/2000/svg" fill='#cae3f6' stroke='#fff' viewBox="0 0 98.7 70.44" id="cloudy">
    <defs></defs>
    <title>cloudyAsset 218colored</title>
    <g id="Layer_2">
      <g id="Layer_1-2">
        <path d="M59.26,31.64H97.15a15.06,15.06,0,0,0-12.1-14.06,15.87,15.87,0,0,0-7.62.47c-1.76.56-2.5.2-3.26-1.52a15.1,15.1,0,0,0-14.88-9.1A14.82,14.82,0,0,0,52,9.93c-1.62,1.06-2.55.86-3.63-.79a16.47,16.47,0,0,0-30.13,6.18c-.53,3.41-1.13,3.15-3.77,3.45-12.16,0-13,12.67-12.95,12.87H39.61"></path>
        <path d="M59.26,31.64H97.15a15.06,15.06,0,0,0-12.1-14.06,15.87,15.87,0,0,0-7.62.47c-1.76.56-2.5.2-3.26-1.52a15.1,15.1,0,0,0-14.88-9.1A14.82,14.82,0,0,0,52,9.93c-1.62,1.06-2.55.86-3.63-.79a16.47,16.47,0,0,0-30.13,6.18c-.53,3.41-1.13,3.15-3.77,3.45-12.16,0-13,12.67-12.95,12.87H39.61"></path>
      </g>
    </g>
  </symbol>

</svg>